<?xml version="1.0" encoding="UTF-8"?>
<svg id="Layer_2" data-name="Layer 2" xmlns="http://www.w3.org/2000/svg" width="1038.93617" height="219.54615" viewBox="0 0 1038.93617 219.54615">
  <g id="Layer_1-2" data-name="Layer 1">
    <g>
      <g>
        <g>
          <path d="M179.65532,108.06517c-.2063,1.87394-.00553,3.95508-.18274,5.79166-1.77716,18.41828-11.02105,35.71889-25.44527,47.25089-.77324.6182-7.38495,5.51183-7.77075,5.24355-.05877-.30148-.18465-.58136-.18053-.89968.23851-18.43448.26864-37.128.18625-55.6759-.03-6.75275-.78575-14.0463,2.7476-20.15882,5.59207-9.67398,21.8189-9.21842,24.83586,2.23629,1.77588,6.7426-.75826,13.08251-8.20587,13.90148-2.3626.2598-6.06256-1.1266-7.50471-3.1033-1.14739-1.57268-.71711-2.15367-.92404-3.82411-.45006-3.63312-4.67741-5.765-7.58747-3.19358-3.35797,2.96721-.88595,9.89078,1.5477,12.83515,6.4576,7.81279,19.19879,7.9831,26.59702,1.39169.55197-.49177.93-1.12759,1.39155-1.55555.16091-.1492.23205-.30008.49539-.23977Z" fill="#fff"/>
          <path d="M75.84819,166.18821c-.3493.05677-.57399-.05096-.8737-.19037-1.2846-.59754-3.93327-2.58404-5.1706-3.50703-8.73679-6.51718-16.33868-15.83469-20.92384-25.7394-4.19464-9.06113-6.06991-18.33548-6.58357-28.29817-.01473-.2857-.01727-.37181.23261-.54935,2.1786,2.43149,4.62361,4.39788,7.73137,5.52759,10.25001,3.72603,24.91781-2.25926,23.7847-14.61495-.36244-3.95209-5.31718-5.91329-8.01581-2.61801-1.93097,2.35789-.0456,5.22995-3.36099,7.77263-4.5394,3.48141-12.2237,1.57536-14.24252-3.93182-2.54153-6.9331,1.33288-15.19191,8.72035-16.81687,11.02394-2.42484,17.89538,5.40947,18.70856,15.74915l-.00656,67.21659Z" fill="#fff"/>
          <path d="M125.78775,99.95981c-.14793-.72218-1.21615-1.97832-1.84543-2.41156-2.86166-1.97019-6.50733-.18638-7.14597,3.08043l-.09396,75.05722c-.21973.24366-.51029.2936-.81763.32849-3.12405.35471-6.81367-.26614-9.9982.00463-.38408.00229-.67055-.19585-.72464-.58521l-.00063-75.15054c-1.48205-5.32275-8.8746-4.36179-9.00732,1.15213.21041,23.84657-.28401,47.70969-.01081,71.55467.00583.50907.38305,1.21582-.15923,1.47382l-7.4018-1.93449c-.95253-.81034-3.41537-.77953-3.5641-2.16379l.00676-70.2488c-.30865-17.63252-14.99505-31.19696-32.79711-24.75978-.60466.21864-1.30959.79151-1.92276.69695.74718-1.53946,1.63951-3.04401,2.55328-4.4871,25.89888-40.90148,85.00039-43.12545,113.6716-3.99751,1.96942,2.68769,3.79038,5.57916,5.26639,8.56715-1.15683-.35351-2.23164-.93275-3.40142-1.26328-18.1627-5.132-31.47361,8.86036-31.31612,26.38967l.00787,69.42856c-.04312.33635-.39762.48638-.67414.63571-2.27629,1.22925-6.30198,2.1665-8.86497,2.76017-.31797.07365-1.75964.77179-1.75964.04129v-74.16881ZM70.4028,60.62217c-4.64105,1.30645-4.43566,7.50637.288,8.47541h80.7218c4.88763-1.00696,4.87755-7.50517,0-8.51488l-81.0098.03946ZM85.6368,73.72716c-5.50504.6626-5.39014,7.93106-.04665,8.63283h50.92311c5.48981-.82002,5.4173-8.16155-.33104-8.6759l-50.54542.04307Z" fill="#fff"/>
        </g>
        <g>
          <path d="M107.04023,10.31871c.32082-.06917.77389-.57882.91074-.8903,1.17201-2.66745,1.87732-6.19805,2.7822-9.00631.07014-.21767.09727-.44694.39877-.41992l3.07376,9.5367c.04982.23745.72101.77983.85748.77983h9.9059c-.11847.84654-1.11305,1.00962-1.62721,1.40182-1.47581,1.12573-2.92192,2.30695-4.44094,3.41816-1.00899.7381-2.58523,1.09569-2.07989,2.75585l3.07152,9.12354-8.76191-5.90525c-.74129-.03244-1.3499.66599-2.03416.92203l-6.63892,4.98684c-.33939.05783-.28472-.13284-.21628-.37972.81408-2.93666,2.19112-5.96463,3.04446-8.91582.10301-.47664-.01463-1.17832-.36652-1.52067-.83228-.31949-1.39597-1.06074-2.06381-1.53837-1.82575-1.30576-3.99256-2.53939-5.77686-3.88327-.18757-.14127-.33244-.17262-.27168-.46513h10.23336Z" fill="#fff"/>
          <circle cx="111.04159" cy="209.01884" r="7.98508" fill="#fff"/>
          <path d="M156.24229,204.993c1.23805-.09893,2.80036-.0088,4.00193-.17487.60356-.08342,2.43965-.53288,3.03741-.72844.58707-.19206,2.36472-.94831,1.88678-1.71848-.95311-1.53587-7.52108-1.54129-9.25281-1.47391-.07386-.28379.11774-.32722.24373-.49143,1.78951-2.33238,4.4832-3.60224,7.32829-3.9679,4.72987-.6079,9.82446,2.68467,13.76646,5.14307.38179.2381,1.75467,1.02605,1.74992,1.3612-.99853,2.00268-3.15342,3.61566-5.19869,4.46671-4.34142,1.8065-8.9731,2.0013-13.39642.37437-1.44554-.53168-3.23977-1.55797-4.16659-2.79032Z" fill="#fff"/>
          <path d="M131.19188,213.17853c1.87155.33174,3.72955.73992,5.65464.66104,1.05766-.04334,2.74635-.22023,3.36286-1.07398.09127-1.03282-3.11428-2.27906-3.98054-2.57891-.56764-.19649-4.54145-1.10988-4.54337-1.34769.82693-.52493,1.88882-1.43666,2.73575-1.84544,2.17755-1.05102,5.95485-.9545,8.18481-.07301,2.12803.8412,5.34665,3.31145,7.08916,4.86324.51357.45735,4.129,3.94592,4.07867,4.23632-1.05942,1.0925-2.41694,1.98732-3.7838,2.61228-5.34761,1.95404-12.70424.70363-17.00249-3.07609-.30961-.27226-2.10479-2.05723-1.7957-2.37774Z" fill="#fff"/>
          <path d="M66.18859,200.89652c-1.87808.01787-3.76767-.07803-5.63172.18241-1.8247.25494-5.98383,1.29574-2.1482,2.76894,2.33525.89693,4.87712,1.14787,7.3701,1.14268l.08114.32512c-.75023.32537-1.38279,1.02981-2.07435,1.44776-5.74156,3.46996-15.91809,2.66228-20.18738-2.84123-1.15318-1.48655-.0529-1.33849.96033-1.97707,4.44758-2.80305,9.35532-6.45081,14.95741-5.42611,2.54183.46493,5.18711,2.2981,6.67268,4.3775Z" fill="#fff"/>
          <path d="M90.91154,213.17854c.04749.25452-.02485.37926-.155.58015-.28148.43448-2.52607,2.57425-3.00479,2.88947-4.21873,2.77784-10.74173,3.78634-15.50493,2.01446-.7673-.28543-3.67889-1.87352-3.74247-2.64892.14487-.31906.49285-.76717.7301-1.01808,5.19127-5.49038,12.17383-11.91177,19.99046-7.08882.36221.22349.69089.51627,1.03241.77017.16116.63693-2.19342.80886-2.65428.94593-1.17177.34851-4.62681,1.52355-5.3449,2.35029-.93167,1.07263.28611,1.43347,1.24444,1.65574,2.48026.57524,4.98801-.07699,7.40895-.45038Z" fill="#fff"/>
          <path d="M45.88451,186.98072c-1.39311-.24511-7.4223-.72394-8.27981-.01214-1.06679.88552.8424,1.94785,1.51565,2.27522,1.75725.85447,3.72215,1.1052,5.45335,1.75641.13895.05227.46249.04612.32845.31793-.26168.53063-3.2112,1.56416-3.88514,1.68259-6.09611,1.07131-14.02761-1.44713-16.72073-7.38942.04523-.24381,1.01217-.68872,1.30546-.82128,6.94664-3.13982,15.07401-6.24327,20.12715,1.61115.12919.20081.20514.32571.15562.57954Z" fill="#fff"/>
          <path d="M176.05409,186.97965c-.12205-.09539,1.06663-1.61567,1.22561-1.80172,5.88547-6.8874,13.78238-2.67351,20.54907.2574.05115.18451-.53398,1.20847-.6794,1.43776-3.48531,5.49549-13.09948,8.15074-18.92075,5.21958-.34458-.17351-.59478-.50996-.86219-.77748-.13749-.61222,2.07314-.69439,2.45924-.808.64187-.18888,1.688-.65751,2.32128-.95336.6676-.31188,3.417-1.52732,2.42561-2.4963-.83748-.81854-7.10193-.33031-8.51847-.07788Z" fill="#fff"/>
          <path d="M162.62872,175.51947c-.11472,2.66511.15277,5.45104-.00349,8.10274-.33159,5.62678-2.29946,10.94568-8.06622,12.89108-.26166.08827-.48548.17684-.77196.12707.86231-2.66987,2.62741-5.02278,2.78489-7.94618.08859-1.6445-1.31526-.68862-2.05362-.08034-1.75555,1.44626-2.84092,3.7123-4.08859,5.56821-.24513-.1578-.22241-.31617-.25164-.56379-.77413-6.55759,3.65764-15.13885,9.88351-17.63516.90397-.36245,1.54143-.60416,2.56712-.46363Z" fill="#fff"/>
          <path d="M130.04563,204.49929c-.21525-.18644,1.31942-1.84428,1.46899-2.04954.80728-1.10786,3.07693-4.44303,2.95079-5.72321-.01762-.17879-.09982-.31542-.23409-.42985-.53582-.43298-2.74498.90451-3.28587,1.32699-1.10073.85978-2.09342,2.35087-3.19179,3.19366-.16421.126-.20765.31757-.49145.24372-.09291-3.00674,1.2237-5.90791,2.84094-8.37285,2.02027-3.07925,5.4473-6.04392,9.07207-6.9736.65708-.16853,3.46532-.89418,3.47395.19904.00178.22576-.25456.53764-.30832.83888-.97158,5.44497-1.85392,13.80537-7.4575,16.60993-1.41806.70973-3.26043,1.09424-4.83773,1.13684Z" fill="#fff"/>
          <path d="M71.91932,193.93972l-.32765.16549c-1.15559-1.83748-2.43431-4.27758-4.17998-5.64543-3.48932-2.73411-1.21065,3.39088-.64755,4.74071.20102.48188,1.75,3.23788,1.55216,3.43992-8.79448-1.92494-9.06053-11.56765-8.84878-18.91749.01232-.42772.15047-.76446.17294-1.13806.02974-.49447-.55744-.99365.40664-1.07838,3.46333-.30438,8.3129,5.27351,9.77527,8.08677.53584,1.03082,2.09695,4.92186,2.09695,5.9258v4.42066Z" fill="#fff"/>
          <path d="M94.84042,201.3893c-.98161-.89907-1.68539-2.07707-2.69964-2.94739-.38152-.32738-1.75981-1.38599-2.15209-1.61372-.44661-.25927-1.84779-.8989-2.20193-.44579-.77364.98983,1.76615,4.1938,2.16948,5.22635l2.10155,2.89054c-.08265.07106-1.90028-.14918-2.17066-.20179-8.12501-1.58117-9.41775-12.0036-10.24972-18.76768.48059-.21406,1.004-.23693,1.52002-.17225,5.31702.66646,10.20853,5.29787,12.406,10.02446.84341,1.81411,1.38265,4.00291,1.277,6.00726Z" fill="#fff"/>
          <path d="M30.494,168.97016c-.29436.26788-6.12397-2.21369-7.43556-1.29624-.10256.07174-.2037.13138-.24187.26145-.32191,1.03006,2.79098,3.08797,3.60194,3.55641.63999.36968,1.34563.63217,2.02383.92334.20249.08694.4463.08239.41453.40165-.03277.13522-.63936.44005-.816.49543-2.00505.62854-3.55507.50049-5.57624.00486-4.25563-1.04356-8.87712-3.90251-10.55118-8.11429-.80596-2.02772-.40215-1.35013.97041-1.64402,5.87128-1.25712,12.99957-2.83257,16.76532,3.39264.1568.25921.97101,1.90393.84482,2.01876Z" fill="#fff"/>
          <path d="M51.12201,182.06817c-.42122.04957-.25904-.00054-.32963-.23639-.18504-.61822-.18622-1.29382-.36882-1.92605-.30486-1.05554-1.63494-4.5213-2.57653-4.95948-1.0667-.4964-1.08548,1.21788-1.14114,1.96733-.16305,2.19546.26763,4.171.65258,6.30104-.25448.04746-.3793-.02481-.58018-.15499-2.58583-1.6758-4.38994-5.57024-4.50098-8.59604-.09953-2.7121,1.50428-9.40702,2.66931-11.91553.08222-.17703.16521-.34377.36385-.41424,3.05962,1.35718,5.07819,4.872,6.09709,7.94663,1.06275,3.20697,1.30914,7.57894.25875,10.81091-.14469.44519-.41685.74676-.5443,1.17682Z" fill="#fff"/>
          <path d="M191.44584,169.13406c.96306-2.8435,3.25263-5.4664,6.22075-6.30299,3.81822-1.0762,7.6736-.08475,11.41842.69849.51732.1082,1.18477-.15688,1.49958.2971.08853.36757-.92387,2.43833-1.18653,2.87652-2.06348,3.44245-6.20055,5.80938-10.05283,6.64779-1.99238.43362-3.27196.5046-5.24357-.07789-.3443-.10172-.76583-.18267-1.01603-.45432.0029-.18577,2.59577-1.3394,2.99922-1.58197.3801-.22854,1.33749-.86058,1.66365-1.11978.48079-.38209,1.73659-1.55029,1.53834-2.18165-.32255-.51717-1.00865-.45936-1.54374-.44568-2.1041.05377-4.25667,1.18145-6.29726,1.64438Z" fill="#fff"/>
          <path d="M174.74496,183.0509c.37872-2.2535.88352-4.47652.65184-6.7915-.29531-2.95072-2.02114-.55766-2.65165.78211-.6664,1.41604-.97858,2.98962-1.42235,4.47463-.03513.11757.06551.54911-.26044.38821-.40609-.20047-.97053-2.20906-1.04907-2.71755-.88018-5.69814.95664-13.52924,6.04924-16.83691.61414-.39889.83657-.34396,1.14531.31033.55605,1.1784,1.37296,4.27354,1.71781,5.6498,1.09085,4.35351,1.47503,9.1634-1.56658,12.85406-.30391.36877-2.18254,2.30605-2.6141,1.88682Z" fill="#fff"/>
          <path d="M185.71434,163.73189c-.19027.23826-.77276-.73947-.85129-.86868-2.49144-4.09897-2.40511-11.2349-.10207-15.39322.18056-.32602,1.35895-1.92777,1.59793-2.16737.32283-.32367.83361-.59483,1.16357-.16103,2.61357,4.78297,6.25747,10.21074,3.87554,15.84179-.46935,1.10959-1.19481,2.17528-2.00198,3.0745-.37062.06858-.22542-.16189-.24327-.40545-.11059-1.50885-.11988-3.40636-.3666-4.87514-.03352-.19958-.68062-1.95168-.76813-2.01465-.86668-.62355-1.50373,1.15224-1.69883,1.76174-.13278.4148-.60486,2.34652-.60486,2.66972v2.53778Z" fill="#fff"/>
          <path d="M32.94903,164.22303c-.94164-.76604-1.91595-2.30201-2.36896-3.44178-1.82206-4.58433.58337-9.824,2.89369-13.7996.21515-.37023,1.21406-2.08768,1.52119-2.08822.38503-.00067,1.7066,1.59999,1.95385,1.98782,2.91867,4.57821,2.86562,12.40309-.31408,16.84738-.39114.00991-.20943-1.69206-.24836-2.04062-.09945-.89053-.3153-2.36283-.57156-3.19421-.59295-1.92376-1.56363-2.80503-2.29204-.32963-.55464,1.88485-.5568,4.09897-.57374,6.05886Z" fill="#fff"/>
          <path d="M12.89327,150.9611c-4.06435-.57827-9.79942-5.94087-10.6835-9.94659-.2226-1.0086-.4774-1.73431.68608-1.85139,1.4121-.14209,2.40658.21546,3.62499.32382,2.36018.20991,4.1451.1504,6.40605,1.12566,2.86851,1.23734,4.9087,4.14493,5.28684,7.23686l-3.07533-1.75308c-.66067-.29749-2.75261-1.21553-3.36709-1.01289-.98528.32493.74815,2.6728,1.1199,3.09627.84741.9653,1.99807,1.47837,2.9196,2.31976.16045.14649.3493.14575.27527.46156-.99772-.10041-2.22902.13713-3.19281,0Z" fill="#fff"/>
          <path d="M206.01733,150.9611c.89563-.99889,2.12617-1.81162,3.03112-2.78133.47518-.50918,1.96729-2.28038,1.48288-2.96057l-.19842-.12824c-1.77311-.59277-6.20544,2.85644-6.4432,2.59483.18843-1.07557.54523-2.29851,1.05777-3.27938.90055-1.72343,2.59049-3.0798,4.36688-3.81968,2.30927-.96184,7.57007-1.61946,10.05533-1.42206,1.24376.09879.54803.55886.43855,1.27371-.55785,3.64247-3.58605,7.0112-6.69508,8.85886-.69796.41479-3.39911,1.66387-4.06676,1.66387h-3.02908Z" fill="#fff"/>
          <path d="M209.29201,123.04547c.32569-2.22804,2.13142-4.4573,3.85456-5.80553,1.87485-1.46693,5.58324-3.37286,7.84826-4.10409.91264-.29463.93779.00205,1.04911.92385.63721,5.27621-3.00184,11.63352-7.56374,14.17378-.33026.1839-1.83566.85605-2.07643.62347-.08264-.55473.43288-.7529.68639-1.19482.51233-.89309,1.2912-2.34776,1.61411-3.29779.09358-.27533.50252-1.80045.48875-1.97334-.0487-.61109-.69704-.40997-1.10746-.2815-1.23371.38619-3.56979,3.21789-4.34811,4.32848-.13273.18939-.12117.35999-.44544.29136.11855-1.14441-.16128-2.58057,0-3.68388Z" fill="#fff"/>
          <path d="M12.8114,126.89308c-1.1427-1.29457-2.08999-2.73776-3.4364-3.84962-.35409-.29241-2.15077-1.72459-2.4452-.79256-.2636.83443,1.21803,3.93672,1.70351,4.80878.15981.28707,1.22621,1.65171,1.06636,1.79724-1.30794-.05292-2.69459-.98016-3.67886-1.80448-3.04529-2.55043-5.7312-6.48802-5.98856-10.54818-.03644-.57489-.14567-3.32102.44029-3.51545.67637-.11732,1.14578.49549,1.69578.72454,3.41296,1.42131,6.54807,2.64043,8.92541,5.64669.55164.69757,1.71766,3.01931,1.71766,3.84915v3.68388Z" fill="#fff"/>
          <path d="M197.99369,146.86691l-1.64087-1.05902c-3.50955-3.49528-5.88122-11.18005-3.6329-15.75717.7062-1.43768,1.87738.51924,2.57641,1.09573.52133.42994,1.2027.76581,1.71759,1.22958,3.77302,3.39842,7.17294,8.19936,4.33701,13.3425-.6905-1.27436-1.10169-2.77458-1.88569-4.00532-.5018-.78774-2.20877-3.11262-2.45633-.98824-.25237,2.16568.48447,4.08797.98478,6.14195Z" fill="#fff"/>
          <path d="M24.10963,146.70308c.33569-1.61435,1.15519-3.49013,1.12885-5.13819-.02168-1.35674-.51108-2.46163-1.7848-1.16478-.95468.97202-1.87278,3.81846-2.58128,5.113-.10352.18915.0079.27562-.36377.20896-2.567-7.09855,2.12735-11.5565,7.28472-15.3904,1.11394-.82808,1.06608-1.49727,1.84587.44578,1.57172,3.91636-.11232,10.36716-2.67494,13.62443-.30159.38334-2.44666,2.67768-2.85465,2.3012Z" fill="#fff"/>
          <path d="M211.58507,107.40855c.52453-1.53749,1.67618-3.37941,1.7969-4.995.13055-1.74718-.38081-2.12389-1.71997-.90247-1.27084,1.1591-2.06703,2.79483-2.98558,4.21403-.10253.15842.01758.29344-.36421.21012-.68798-1.86478-.32222-4.23205.41013-6.05389,1.6452-4.0927,6.05194-6.31717,9.79839-8.18095.70458.1995.78633,3.35904.75747,4.00094-.16003,3.55902-2.52499,8.3289-5.31548,10.56629-.33281.26684-2.07739,1.41147-2.37764,1.14092Z" fill="#fff"/>
          <path d="M13.46937,105.77111c-.72029-1.14706-2.59696-4.53802-3.8915-4.87443-.2421-.06291-.6265-.11274-.78797.11821-.3561,2.35444.91492,4.52035,1.89218,6.55738-.59123.04185-1.24692-.31121-1.71816-.65427-4.19248-3.05208-6.7548-8.95593-5.96633-14.15201.06175-.40696.43356-1.55137.9689-1.15492l5.23271,3.28324c3.20136,2.58901,4.99728,5.01165,4.92751,9.31335-.00509.31386-.20937,1.8717-.65733,1.56344Z" fill="#fff"/>
          <path d="M28.20238,117.31499c-.43547,3.2317-3.88206,7.75156-6.65781,9.38778-.43929.25895-2.8285,1.49861-3.1654,1.17182-.08897-.63243.58225-.8688.88873-1.31995.38094-.56076,1.65962-2.71706,1.81902-3.25666.11073-.37483.22634-1.67911-.18769-1.80058-1.08063-.31702-4.45488,3.24869-5.22473,4.08445-.3802.15927-.25755-.71412-.25073-.90656.20466-5.77445,4.43142-8.26524,9.34341-9.97674.68099-.23728,2.29539-.85632,2.91098-.87068.17811-.00416.52422.01475.52422.21256,0,.98004.12302,2.36161,0,3.27456Z" fill="#fff"/>
          <path d="M203.5605,127.87459c-.22984.03017-.43881-.01051-.65913-.07601-4.89251-1.45454-9.64134-8.1291-9.16438-13.26859.02322-.2502.09248-.48946.1795-.72163.16911-.11798,2.88557.71388,3.29455.85164,5.07367,1.70902,9.23298,4.33241,9.42466,10.23632.00623.19174.02189.47202-.21163.52251-.34196.07394-2.78512-2.79824-3.36806-3.1779-.15136-.09858-1.61975-.7531-1.7133-.75221-.28801-.00492-.35483.1714-.39973.41113-.19789,1.05653.77613,2.96842,1.33517,3.9023.18255.30496,1.58416,1.78092,1.28236,2.07243Z" fill="#fff"/>
          <path d="M14.28334,85.79733c-1.40682-.60151-2.59535-2.53801-3.22987-3.89074-1.72406-3.67553-2.37634-8.57389-.12255-12.15426.21317-.05303.27995.14517.40833.24391,1.51353,1.16408,5.10269,4.9803,5.98403,6.62313,1.28838,2.40156,1.80165,5.67926.15457,8.0286-.69352-1.26717-.97924-2.8892-1.81159-4.07945-2.20452-3.15242-2.00849,1.0526-1.86995,2.68853.07314.86372.41896,1.67903.48703,2.54028Z" fill="#fff"/>
          <path d="M207.8193,85.63282c.18492-1.15556.62535-2.32936.66067-3.51263.01647-.55176-.04667-2.55414-.61128-2.69162-.53236.00205-1.08975.74303-1.39773,1.17376-.87111,1.21832-1.32245,2.80669-1.76549,4.21223-2.23877-3.13659-.87186-7.6443,1.63987-10.23206,1.20096-1.86884,3.02122-3.34951,4.80857-4.65297.50808.08703,1.09613,2.22116,1.20757,2.72914.87422,3.98502-.71088,10.16924-4.0508,12.73037-.16419.12591-.20757.31759-.4914.24377Z" fill="#fff"/>
          <path d="M203.99509,101.08151c1.02791,1.06768,1.17652,1.91732,1.6857,3.1443.22657.54597.78239.89215.66314,1.54553-.67105.10681-.95836-.51345-1.41708-.79161-.63896-.38745-1.67575-1.00884-2.35067-1.25147-.55239-.19858-1.68735-.61287-2.05087-.08034-.49086,1.088,2.75021,4.19254,3.68774,4.82568.03532.5856-2.81133-.18284-3.14479-.29031-3.26152-1.05111-6.83101-4.33101-7.98847-7.56598-.2757-.77056-.58867-1.53948-.48941-2.3774,1.09653.0616,2.2678-.08334,3.35471.00339,2.50963.20025,6.2521.97073,8.05002,2.83822Z" fill="#fff"/>
          <path d="M29.51299,98.23993c.50543.50739-1.33623,4.25525-1.74267,4.88985-1.32326,2.0661-4.28645,4.24229-6.60806,5.01687-1.01771.33955-2.41464.72443-3.43845.40692.25858-.44686.82958-.50436,1.2273-.81699.7751-.60928,2.85753-3.04652,2.71-4.00568-.10628-.69096-1.13326-.30711-1.6489-.17262-1.58659.4138-2.4874,1.40193-3.84292,2.05478-.18675.08994-.37131.22496-.41137-.09004-.0235-.18478,1.30051-3.11335,1.49839-3.41065,1.74373-2.61991,5.78559-3.6399,8.73769-3.86968,1.14071-.08879,2.36848.0611,3.519-.00276Z" fill="#fff"/>
          <path d="M201.75828,66.8045c-.54039-.24744-.25314-1.0026-.36383-1.51669-.17122-.79521-.95679-3.41011-1.59931-3.80308-.21947-.13423-.61222-.14879-.82562-.0074-.59843.39649-.56648,4.94573-.32109,5.81795-.15044.17348-.79648-.52147-.90407-.6497-2.58144-3.07681-2.02798-7.32668-.69458-10.85453.49728-1.31569,1.22788-2.54843,1.68511-3.88618,4.5115,3.02451,5.15121,10.23039,3.02339,14.89963Z" fill="#fff"/>
          <path d="M23.61784,62.79355c-.01332-.09386-.42284-1.27953-.48008-1.32024-1.11751-.7949-2.01772,2.0551-2.18943,2.74403-.18353.73633-.21915,1.27132-.27963,2.01501-.01967.24187.13363.47605-.24149.40748-.46636-.22944-.89271-2.22336-.99071-2.77592-.67414-3.80111.18858-9.44387,3.60577-11.79706.13804-.09506.16293-.22764.4095-.16073,1.53739,4.05434,3.84337,8.17822,2.21053,12.60436-.34648.9392-1.0864,2.0874-2.04446,2.45813-.13132-1.29947.17819-2.91935,0-4.17507Z" fill="#fff"/>
          <path d="M32.8688,80.23058c.15072.11809.21361.1696.21781.37265.019.9205-1.46631,3.53895-2.10555,4.2888-1.44257,1.69219-6.32909,4.56921-8.51526,3.93362-.96542-.28068.41583-.75798.66815-.9744.53837-.46179,2.87603-2.69658,2.37903-3.37537-.58563-.79983-4.2662,1.05321-5.08561,1.32388-.0607-1.28083,1.38967-3.40936,2.45139-4.09791.3805-.24676,3.30859-1.47127,3.60442-1.47127h6.38562Z" fill="#fff"/>
          <path d="M195.78397,80.23058c.58954.11213,3.06746,1.25035,3.60184,1.63759,1.39893,1.01374,1.76497,2.38991,2.53573,3.85059.1998.67515-1.21863-.3774-1.36-.4419-.63203-.28833-3.52314-1.41637-3.97147-.80014-.66797.91814,2.59704,3.74485,3.5319,3.94319.03911.50969-.34783.46819-.72885.49826-1.4075.11107-3.91581-.85594-5.16774-1.56231-2.36324-1.3334-5.12539-4.25058-5.07263-7.12529h6.63122Z" fill="#fff"/>
          <path d="M32.95135,52.887c.33529-1.59316,1.18362-3.50116.57189-5.07472-.40683-.49998-1.21658.34741-1.47718.651-.68867.80227-.92881,1.87346-1.42592,2.66729-.12813.20461-.1511.3455-.45131.28305-.63955-3.18216.36447-7.12207,2.35116-9.68048.71621-.92232,1.68342-1.68072,2.78795-2.0937.25269.11901.29537.37441.38192.60418.59756,1.58637,1.02143,5.61094.8428,7.30307-.2187,2.07164-1.44722,4.71574-3.58131,5.3403Z" fill="#fff"/>
          <path d="M195.86582,69.09542c-.32572.24988-4.40113-1.86904-4.92003-.24147-.10304,1.09352,2.40188,2.29489,3.17269,2.8909.18257.14117.33928.16497.27296.46219-4.21233.76498-9.73569-2.05497-10.64298-6.38392.82764-.00556,1.58989-.33004,2.39458-.47241,1.88445-.3334,3.62783-.55332,5.5006.0276,2.07111.64245,3.354,1.72861,4.22218,3.71711Z" fill="#fff"/>
          <path d="M191.93446,51.74173c-.67959-.87751-.88223-2.09701-1.63552-3.02885-.28401-.35133-1.41451-1.46965-1.77054-.79313-.69237,1.31558.39017,3.73375.62357,5.13109-.10637.11582-1.34367-.938-1.47188-1.06428-2.25127-2.2175-2.27457-5.51046-1.97471-8.52188.11431-1.14794.70748-2.63659.8289-3.839.4744-.43067,2.93028,2.10366,3.27704,2.53451,2.03096,2.52348,2.70221,6.45642,2.12315,9.58155Z" fill="#fff"/>
          <path d="M38.35406,65.82326c-.20749,1.62933-1.40484,2.98921-2.61789,4.01262-1.9309,1.62904-5.57219,3.25107-8.02169,2.12643.3328-.56058.93773-.60146,1.39316-.89577.55958-.36161,2.71898-1.87339,1.70308-2.53183-1.17797-.76348-3.35948.33453-4.57231.72527.39974-1.4222,2.08915-3.14738,3.44149-3.67913,3.08906-1.21463,5.5895-.15396,8.67416.24242Z" fill="#fff"/>
          <path d="M37.20844,57.31036c.97248-.15813,4.08964-1.23091,3.7419-2.5039-.23813-.51837-1.48527-.62875-2.02225-.62256-.74273.00857-1.54592.40143-2.16969.4762-.20843.02499-.48758-.01042-.5323-.21921-.02422-.11306,1.12309-1.49151,1.31448-1.62939,2.07799-1.49702,4.24339-1.31025,6.57932-.69559.47817.12582,4.1898,1.44368,4.20407,1.66977-1.63082,3.49655-6.26408,4.81135-9.87388,4.3273-.22816-.03059-1.53459-.40899-1.24164-.80261Z" fill="#fff"/>
          <path d="M185.87728,54.68812c-1.33834-.20338-2.91303-.83735-4.25089-.23944-1.42928.63877.67425,1.93702,1.29368,2.29771l1.97405.80547c-.34598.2773-.97575.50607-1.40402.56161-3.8422.49829-7.81301-.84221-9.71725-4.30885.11069-.46742,4.79061-1.8926,5.51542-2.02133,2.7012-.47974,4.67845.24114,6.34523,2.41343.12598.16419.31757.2076.24377.49139Z" fill="#fff"/>
          <path d="M173.43348,41.91736c-.70283-.09666-3.46681-.38884-3.85894.1529-.51314.70891,1.40862,1.90427,1.94495,2.17155.16726.08335,1.45454.26253,1.09631.6219-.5769.03527-1.15058.28085-1.72212.32645-2.35796.18813-4.76917-.62982-6.61977-2.05267-.33933-.2609-1.64155-2.13038-1.48184-2.36332,3.0822-.87693,6.09593-2.44459,9.19223-.59869.2904.17312,1.77757,1.42485,1.44917,1.7419Z" fill="#fff"/>
          <path d="M59.31206,40.77379c.36523.41674-1.96189,2.61563-2.40564,2.9142-1.95449,1.31506-5.47501,2.21053-7.5816.93096.81441-.4124,1.76918-.45607,2.49436-1.06023,2.59547-2.16234-1.82798-1.94603-3.14929-1.64139-.07393-.28393.11811-.32721.24378-.49138,2.73842-3.57752,6.8682-1.80499,10.39839-.65216Z" fill="#fff"/>
          <path d="M165.08303,29.96524c-.72945-.40491-4.05717-1.0035-4.08782.07832.22206,1.26242,1.56493,1.53462,2.502,2.08503.16927.09943.71572.30226.6027.53658-.24365.50519-2.78556.48376-3.3181.37483-2.10365-.43031-4.86154-4.19006-6.01271-5.93686,2.70982-1.72783,6.4644-.71522,8.83018,1.15476.20684.16349,1.67558,1.52199,1.48374,1.70734Z" fill="#fff"/>
          <path d="M178.83668,37.16926c-.34024.07438-.37192-.17577-.52696-.37191-.64367-.81433-1.29769-2.0899-2.50375-2.09597-.44793-.00226-.58079.12574-.56169.56127.05697,1.29921.74378,2.36083,1.13638,3.54389-4.395-1.51102-4.25765-6.76579-4.25549-10.64182,4.24538.69598,6.26257,5.1256,6.7115,9.00453Z" fill="#fff"/>
          <path d="M49.81525,28.16506v5.15743c0,.49111-1.0558,3.18039-1.40221,3.67341-.47904.68181-1.82472,1.73782-2.61256,1.97276-.61348.18295.29454-1.06789.3695-1.26863.22507-.60266,1.17306-3.16113.12744-3.15054-1.09504.579-2.12974,1.50892-2.70618,2.61934-.27848.03114-.17792-.56458-.16932-.74262.16488-3.41204,2.93403-7.51731,6.39331-8.26116Z" fill="#fff"/>
          <path d="M58.00239,32.42426c3.93392-1.40591,4.4036-3.97504-.65439-2.6226-.07386-.28344.1167-.32733.24353-.49163,1.97894-2.56346,6.66993-4.18069,9.50702-2.29045.2679.50645-.61936,1.1905-.88375,1.58097-1.1744,1.73445-3.24999,4.21955-5.51079,4.47692-.26836.03055-3.26112.10064-2.70162-.65321Z" fill="#fff"/>
        </g>
      </g>
      <g>
        <path d="M659.10058,62.55677c0,3.79823-.41435,7.47459-1.24306,11.03315-.8287,3.55449-1.68178,5.32971-2.55924,5.32971-.68246,0-1.02369-.26811-1.02369-.80433l.29248-1.16994c1.46242-3.41231,2.19363-7.99456,2.19363-13.74675,0-12.96679-5.16722-23.95932-15.49759-32.97757-10.33037-9.01826-22.9539-13.52739-37.86449-13.52739-24.07509,0-48.73515,11.80092-73.98017,35.40275-9.94243,9.26606-18.51993,18.28838-25.7325,27.06696-6.92009,8.28705-20.46982,25.84421-40.64309,52.66743-29.82728,39.50159-54.29234,64.17587-73.39521,74.02283-8.57953,4.38726-14.08595,6.58495-16.52128,6.58495-.58497,0-.87745-.34123-.87745-1.02369.09546-.09749,1.11916-.87745,3.07108-2.33987,9.55448-7.12117,17.15906-16.67971,22.81375-28.67562,5.26471-11.02096,14.71966-37.10891,28.37095-78.27197,11.60187-35.11027,24.86114-60.27202,39.77783-75.48931.58497-.58497.87745-1.07244.87745-1.46242-1.26743-.38998-4.14555,1.70616-8.63031,6.28841-14.5328,14.42921-31.60046,40.36279-51.20095,77.80075-12.09543,23.00874-22.70204,40.43591-31.81982,52.28152-9.11575,11.8456-19.9661,22.25316-32.54697,31.22267-20.67496,14.81919-41.44945,22.22878-62.31941,22.22878-13.55582,0-24.60116-2.85172-33.13397-8.55516-8.53485-5.70344-12.80024-13.03991-12.80024-22.00942,0-5.06972,1.46242-9.33511,4.38726-12.79618,2.92484-3.46106,6.58089-5.19159,10.96815-5.19159,6.33715,0,9.50573,3.11983,9.50573,9.35949,0,3.21732-1.03182,5.97155-3.09342,8.26267s-4.566,3.43669-7.50912,3.43669c-4.80974,0-7.21461-2.63236-7.21461-7.89707,0-1.94989-.39201-2.92484-1.17806-2.92484-1.5721,0-2.35612,2.6811-2.35612,8.04331,0,7.99456,3.97697,14.55108,11.93091,19.66955,7.95191,5.11847,18.17463,7.67771,30.66411,7.67771,25.46845,0,50.45146-13.21053,74.947-39.63158,9.85509-10.62692,18.19901-20.98573,25.02973-31.07643,6.83072-10.0907,20.44544-32.05137,40.84011-65.88202,8.58766-14.33172,18.27213-27.34726,29.05544-39.04662,10.78332-11.69936,18.46712-17.54904,23.05546-17.54904.68043,0,1.02369.29248,1.02369.87745-.09749.38998-.29248.77996-.58497,1.16994-9.067,9.94852-17.25656,28.72437-24.56866,56.32755-10.9194,40.47654-21.20509,69.92805-30.85706,88.36267-9.55651,17.94714-21.84084,31.55578-36.85299,40.81777-.38998.09749-.58497.29248-.58497.58497.09546.09749.29248.19499.58497.29248,2.24238,0,7.70005-3.11983,16.37504-9.36355,10.52536-7.40959,20.22202-16.28567,29.092-26.62417,8.86998-10.3385,24.95254-31.50297,48.24971-63.4934,16.47051-22.62689,29.55713-39.18473,39.25379-49.66947,9.69666-10.48068,20.44341-19.72642,32.24027-27.72098,18.4204-12.38589,36.98907-18.58086,55.70399-18.58086,16.37504,0,29.84759,4.77318,40.42576,14.31547,10.57411,9.54635,15.85913,21.66819,15.85913,36.37364ZM427.38216,54.35097c0,2.15301-2.78266,6.3534-8.34798,12.60931-8.3947,9.48542-16.49894,14.2261-24.30867,14.2261-5.37033,0-9.91196-1.97427-13.62285-5.9228-3.71089-3.94853-5.56329-8.79889-5.56329-14.55108,0-5.5572,1.99661-12.23558,5.99592-20.03515,4.97223-9.74947,7.45834-16.62284,7.45834-20.62012,0-4.97223-2.33987-8.96951-7.01962-11.99184-4.67974-3.02233-10.82191-4.5335-18.42649-4.5335-21.74131,0-42.16848,8.77452-61.2754,26.32356-19.10896,17.54904-28.66343,36.21927-28.66343,56.01069,0,10.23694,3.14623,18.59711,9.4387,25.0805,6.2945,6.4834,14.36828,9.72509,24.22743,9.72509,8.78061,0,17.68513-2.51049,26.71151-7.53146,9.02638-5.02098,16.3202-11.48,21.88349-19.37707.38795-.48747.68043-.73121.87745-.73121.77996,0,1.16994.43873,1.16994,1.31618,0,1.94989-3.12389,5.70344-9.36558,11.26063-12.88148,11.60187-26.83541,17.4028-41.86177,17.4028-10.53958,0-19.12724-3.41231-25.76297-10.23694-6.63573-6.82463-9.95055-15.69664-9.95055-26.61605,0-21.15634,9.77384-40.60653,29.32152-58.35056,19.54565-17.74403,40.92339-26.61605,64.12712-26.61605,9.55448,0,17.03719,2.38862,22.44815,7.16586,5.41095,4.77724,8.11643,11.35813,8.11643,19.74267,0,6.23966-3.12186,15.74539-9.35949,28.51719-2.14488,4.48475-3.21732,8.04331-3.21732,10.67567,0,7.40959,4.00337,11.11439,12.01216,11.11439,4.78536,0,10.12929-2.29519,16.03787-6.89369,5.91061-4.59444,10.66957-10.22069,14.285-16.87064.48544-.97495.97495-1.46242,1.46445-1.46242.77996,0,1.16994.38998,1.16994,1.16994ZM588.76021,22.90894c0,.48747-1.31618,1.41367-3.94447,2.7786-11.39266,6.04467-21.42242,14.77044-30.08726,26.17732-8.66687,11.40688-18.55039,28.90717-29.65666,52.50088-16.18412,34.31812-30.6377,58.98428-43.36075,73.99846-12.72305,15.01418-28.44407,25.78734-47.16305,32.31948,8.67703,1.31618,15.35541,1.97427,20.03515,1.97427,15.01215,0,27.0304-3.20108,36.04865-9.59104,9.01623-6.39403,21.76569-20.72168,38.24228-42.9789,1.07244-1.36899,1.90115-2.05145,2.48611-2.05145.38795.09749.58497.38998.58497.87745,0,.97901-4.58631,7.27148-13.75284,18.88959-11.22001,14.25453-21.24165,23.96744-30.07101,29.14278-8.82936,5.17128-19.68174,7.75895-32.55713,7.75895-8.00066,0-16.633-.90183-25.89905-2.70548-6.53824,2.19363-13.21865,3.29045-20.04734,3.29045-5.17128,0-7.75489-.99932-7.75489-2.99796,0-2.43737,3.60527-3.65605,10.82191-3.65605,3.99728,0,9.26199.48747,15.79414,1.46242h1.90115c10.3324-3.7048,19.08458-9.57885,26.25044-17.62216s15.76976-21.61944,25.81171-40.7284c20.37639-38.70538,36.50972-66.10139,48.4061-82.18801,11.50234-15.40416,25.29987-28.56594,41.38649-39.48534,8.09206-5.36221,13.30802-8.04331,15.64789-8.04331.58497,0,.87745.29248.87745.87745Z" fill="#fff"/>
        <g>
          <path d="M696.50246,214.71056l1.12703-5.61369.28176,1.69005-4.10448-10.1608h2.59528l3.29967,8.12854-1.52919.02048,6.55938-8.14902h2.73666l-8.12904,10.18128.90572-1.71053-1.12703,5.61369h-2.61576Z" fill="#fff"/>
          <path d="M712.76004,214.91189c-1.42228,0-2.63574-.25478-3.64188-.76484-1.00614-.50956-1.77398-1.21696-2.30403-2.12268-.53005-.90522-.79482-1.94833-.79482-3.12882,0-1.19348.20133-2.30353.60398-3.32965.40216-1.02612.98566-1.92185,1.7505-2.6862.76435-.76484,1.67656-1.36483,2.73616-1.80096,1.05959-.43563,2.24008-.65394,3.54147-.65394,1.40829,0,2.61576.25528,3.6214.76484,1.00614.50956,1.77748,1.21696,2.31402,2.12268.53654.90522.80481,1.94833.80481,3.12882,0,1.19398-.20482,2.30353-.61347,3.32965-.40965,1.02612-.99615,1.92185-1.76049,2.6862-.76484.76484-1.67357,1.36533-2.72666,1.80096-1.0531.43613-2.23009.65394-3.53098.65394ZM712.98135,212.61786c.88524,0,1.68306-.15737,2.39445-.4726.71089-.31523,1.31787-.75136,1.82094-1.30788s.88824-1.20047,1.15651-1.93185c.26827-.73087.40266-1.49872.40266-2.30353,0-.76484-.16786-1.44177-.50307-2.03226-.33521-.58999-.82479-1.0461-1.46874-1.36833-.64395-.32172-1.43527-.48259-2.37447-.48259-.87175,0-1.66657.15786-2.38396.4726-.71789.31523-1.32786.75136-1.83093,1.30788-.50307.55702-.88524,1.20047-1.14702,1.93185-.26178.73087-.39216,1.49872-.39216,2.30353,0,.76484.16386,1.44226.49258,2.03226.32872.59049.8148,1.0461,1.45875,1.36833.64395.32172,1.43527.48259,2.37447.48259Z" fill="#fff"/>
          <path d="M728.61546,214.91189c-1.34135,0-2.4519-.26178-3.33015-.78483-.87875-.52305-1.49572-1.25742-1.85091-2.20311-.3557-.94569-.40615-2.06223-.15087-3.35013l1.58914-7.94769h2.61576l-1.58914,7.90723c-.26877,1.36833-.13788,2.39145.39216,3.06837.52955.67792,1.39131,1.01613,2.58529,1.01613,1.11355,0,2.01228-.32472,2.69619-.97566.68441-.65044,1.167-1.69355,1.44876-3.12882l1.58964-7.88724h2.55531l-1.58964,8.06859c-.41564,2.06573-1.20697,3.6184-2.37397,4.65751-1.167,1.04011-2.69619,1.55966-4.58757,1.55966Z" fill="#fff"/>
          <path d="M737.56879,214.71056l2.81709-14.08444h5.47281c1.70354,0,3.02141.37218,3.95361,1.11654s1.3983,1.78797,1.3983,3.12882c0,1.18049-.27127,2.19662-.8148,3.04839-.54303.85177-1.31787,1.50921-2.32401,1.97181s-2.20012.69391-3.58143.69391h-4.58757l1.34835-1.18698-1.0466,5.31195h-2.63574ZM741.19069,209.70035l-.88524-1.26741h4.26535c1.27441,0,2.26006-.28176,2.95797-.84528.6974-.56302,1.0461-1.38831,1.0461-2.47488,0-.76435-.25828-1.33436-.77434-1.71004-.51656-.37518-1.25792-.56352-2.2236-.56352h-4.10448l1.36833-1.30788-1.65009,8.169ZM746.82436,214.71056l-2.87704-5.11062h2.77662l2.87704,5.11062h-2.77662Z" fill="#fff"/>
          <path d="M760.30532,212.51744h7.96768l-.44262,2.19312h-10.56345l2.81709-14.08444h10.28169l-.44262,2.19312h-7.68642l-1.93135,9.69819ZM761.31145,206.48111h7.02199l-.42264,2.15316h-7.02199l.42264-2.15316Z" fill="#fff"/>
          <path d="M774.40974,214.71056l-3.31966-14.08444h2.69619l2.95747,12.73659h-1.67007l8.14902-12.73659h2.71617l-8.95383,14.08444h-2.57529Z" fill="#fff"/>
          <path d="M791.25081,214.91189c-1.42228,0-2.63574-.25478-3.64188-.76484-1.00614-.50956-1.77398-1.21696-2.30403-2.12268-.53005-.90522-.79482-1.94833-.79482-3.12882,0-1.19348.20133-2.30353.60398-3.32965.40216-1.02612.98566-1.92185,1.7505-2.6862.76435-.76484,1.67656-1.36483,2.73616-1.80096,1.05959-.43563,2.24008-.65394,3.54147-.65394,1.40829,0,2.61576.25528,3.6214.76484,1.00614.50956,1.77748,1.21696,2.31402,2.12268.53654.90522.80481,1.94833.80481,3.12882,0,1.19398-.20482,2.30353-.61347,3.32965-.40965,1.02612-.99615,1.92185-1.76049,2.6862-.76484.76484-1.67357,1.36533-2.72666,1.80096-1.0531.43613-2.23009.65394-3.53098.65394ZM791.47212,212.61786c.88524,0,1.68306-.15737,2.39445-.4726.71089-.31523,1.31787-.75136,1.82094-1.30788s.88824-1.20047,1.15651-1.93185c.26827-.73087.40266-1.49872.40266-2.30353,0-.76484-.16786-1.44177-.50307-2.03226-.33521-.58999-.82479-1.0461-1.46874-1.36833-.64395-.32172-1.43527-.48259-2.37447-.48259-.87175,0-1.66657.15786-2.38396.4726-.71789.31523-1.32786.75136-1.83093,1.30788-.50307.55702-.88524,1.20047-1.14702,1.93185-.26178.73087-.39216,1.49872-.39216,2.30353,0,.76484.16386,1.44226.49258,2.03226.32872.59049.8148,1.0461,1.45875,1.36833.64395.32172,1.43527.48259,2.37447.48259Z" fill="#fff"/>
          <path d="M800.86807,214.71056l2.81709-14.08444h2.61576l-2.37447,11.87133h7.36419l-.44262,2.2131h-9.97995Z" fill="#fff"/>
          <path d="M815.7778,214.71056l-3.31966-14.08444h2.69619l2.95747,12.73659h-1.67007l8.14902-12.73659h2.71617l-8.95383,14.08444h-2.57529Z" fill="#fff"/>
          <path d="M828.75569,212.51744h7.96768l-.44262,2.19312h-10.56345l2.81709-14.08444h10.28169l-.44262,2.19312h-7.68642l-1.93135,9.69819ZM829.76183,206.48111h7.02199l-.42264,2.15316h-7.02199l.42264-2.15316Z" fill="#fff"/>
          <path d="M838.91649,214.71056l2.81709-14.08444h5.69412c1.43527,0,2.66272.2383,3.68185.71439,1.01963.47609,1.80096,1.15002,2.34449,2.02177.54303.87225.8148,1.89837.8148,3.07886,0,1.24743-.21132,2.38096-.63396,3.40009-.42264,1.01963-1.01963,1.88838-1.79097,2.60577-.77134.71789-1.69355,1.27441-2.76613,1.67007-1.07358.39566-2.26706.59349-3.58193.59349h-6.57936ZM841.97487,212.49746h3.60191c1.26042,0,2.34399-.25828,3.24922-.77484.90572-.51606,1.59963-1.21746,2.08272-2.1027.48259-.88524.72438-1.89138.72438-3.01792,0-.76484-.16786-1.42878-.50307-1.99179-.33571-.56352-.83528-.99914-1.49922-1.30788s-1.49222-.4631-2.48487-.4631h-3.23923l-1.93185,9.65823Z" fill="#fff"/>
          <path d="M867.66886,214.91189c-1.43527,0-2.66272-.25478-3.68185-.76484-1.01963-.50956-1.80096-1.21696-2.34399-2.12268-.54353-.90522-.8153-1.94833-.8153-3.12882,0-1.19348.20432-2.30353.61397-3.32965.40915-1.02612.99615-1.92185,1.76049-2.6862.76435-.76484,1.67656-1.36483,2.73616-1.80096,1.05959-.43563,2.24708-.65394,3.56145-.65394,1.22045,0,2.29404.20133,3.21924.60348.92571.40266,1.6366.98616,2.13317,1.7505l-1.89138,1.58964c-.38917-.53604-.88524-.94569-1.48922-1.22745-.60348-.28126-1.32137-.42214-2.15266-.42214-.89873,0-1.71053.15437-2.43491.4626-.72388.30874-1.34135.74137-1.85091,1.29789-.51006.55652-.89873,1.20047-1.167,1.93135-.26827.73137-.40216,1.50621-.40216,2.32401,0,.76484.16736,1.44226.50257,2.03226.33521.59049.83179,1.0461,1.48922,1.36833.65694.32172,1.46175.48259,2.41443.48259.79132,0,1.52569-.13389,2.20311-.40216s1.27791-.67742,1.80096-1.22745l1.52919,1.65009c-.68441.77783-1.5192,1.35134-2.50535,1.72003-.98566.36868-2.06223.55353-3.22923.55353Z" fill="#fff"/>
          <path d="M872.57815,214.71056l9.15466-14.08444h2.59578l3.501,14.08444h-2.59578l-2.93748-12.73659h1.0466l-7.96818,12.73659h-2.7966ZM876.15959,211.45086l1.10655-2.05224h7.5855l.34221,2.05224h-9.03426Z" fill="#fff"/>
          <path d="M889.35878,214.71056l2.81709-14.08444h5.47281c1.70354,0,3.02141.37218,3.95361,1.11654s1.3983,1.78797,1.3983,3.12882c0,1.18049-.27127,2.19662-.8148,3.04839-.54303.85177-1.31787,1.50921-2.32401,1.97181s-2.20012.69391-3.58143.69391h-4.58757l1.34835-1.18698-1.0466,5.31195h-2.63574ZM892.98068,209.70035l-.88524-1.26741h4.26535c1.27441,0,2.26006-.28176,2.95797-.84528.6974-.56302,1.0461-1.38831,1.0461-2.47488,0-.76435-.25828-1.33436-.77434-1.71004-.51656-.37518-1.25792-.56352-2.2236-.56352h-4.10448l1.36833-1.30788-1.65009,8.169ZM898.61435,214.71056l-2.87704-5.11062h2.77662l2.87704,5.11062h-2.77662Z" fill="#fff"/>
          <path d="M906.82382,212.51744h7.96768l-.44262,2.19312h-10.56345l2.81709-14.08444h10.28169l-.44262,2.19312h-7.68642l-1.93135,9.69819ZM907.82996,206.48111h7.02199l-.42264,2.15316h-7.02199l.42264-2.15316Z" fill="#fff"/>
          <path d="M920.02302,212.51744h7.96768l-.44262,2.19312h-10.56345l2.81709-14.08444h10.28169l-.44262,2.19312h-7.68642l-1.93135,9.69819ZM921.02916,206.48111h7.02199l-.42264,2.15316h-7.02199l.42264-2.15316Z" fill="#fff"/>
          <path d="M930.18382,214.71056l2.81709-14.08444h5.47281c1.70354,0,3.02141.37218,3.95361,1.11654s1.3983,1.78797,1.3983,3.12882c0,1.18049-.27127,2.19662-.8148,3.04839-.54303.85177-1.31787,1.50921-2.32401,1.97181s-2.20012.69391-3.58143.69391h-4.58757l1.34835-1.18698-1.0466,5.31195h-2.63574ZM933.80571,209.70035l-.88524-1.26741h4.26535c1.27441,0,2.26006-.28176,2.95797-.84528.6974-.56302,1.0461-1.38831,1.0461-2.47488,0-.76435-.25828-1.33436-.77434-1.71004-.51656-.37518-1.25792-.56352-2.2236-.56352h-4.10448l1.36833-1.30788-1.65009,8.169ZM939.43939,214.71056l-2.87704-5.11062h2.77662l2.87704,5.11062h-2.77662Z" fill="#fff"/>
          <path d="M954.4895,214.91189c-.73787,0-1.45176-.07394-2.14266-.22131s-1.32137-.3452-1.89138-.59349-1.04311-.52655-1.41829-.83528l1.10655-2.05224c.38867.32172.83129.59699,1.32786.82479.49608.2283,1.02262.40266,1.57965.52305.55652.1209,1.11654.18134,1.68006.18134.68391,0,1.2809-.08043,1.79047-.24129.50956-.16136.90223-.38917,1.17699-.68441.27476-.29475.41265-.65044.41265-1.06609,0-.37568-.12739-.68092-.38217-.91572-.25528-.2343-.59349-.42913-1.01613-.5835-.42264-.15387-.88524-.30174-1.38831-.44262s-1.00964-.30174-1.5192-.48309c-.51006-.18085-.97267-.40865-1.38831-.68391-.41614-.27476-.75435-.62696-1.01613-1.0561-.26128-.42913-.39216-.96617-.39216-1.60962,0-.92571.25778-1.72702.77434-2.40444s1.23394-1.20397,2.15316-1.57965c.91871-.37518,1.9883-.56352,3.20925-.56352.91172,0,1.77698.10091,2.59528.30174.8183.20133,1.5227.49657,2.11269.88524l-1.02612,2.07272c-.52305-.3487-1.11355-.61697-1.77048-.80481-.65744-.18784-1.34135-.28176-2.05224-.28176-.6979,0-1.30139.08743-1.81095.26178-.51006.17435-.89873.41564-1.167.72438-.26827.30824-.40915.67043-.42264,1.08607,0,.38917.12739.7014.38267.9357.25428.2348.58999.43263,1.00564.59349.41564.16136.87875.31223,1.38831.45311.50956.14038,1.01613.29824,1.5192.4726s.96917.39566,1.3983.66393c.42913.26877.77134.60698,1.02612,1.01613s.38267.92221.38267,1.53918c0,.92571-.25878,1.73052-.77484,2.41443-.51656.68441-1.24094,1.21446-2.17314,1.58964s-2.02177.56352-3.2697.56352Z" fill="#fff"/>
          <path d="M969.29831,214.91189c-1.42228,0-2.63574-.25478-3.64188-.76484-1.00614-.50956-1.77398-1.21696-2.30403-2.12268-.53005-.90522-.79482-1.94833-.79482-3.12882,0-1.19348.20133-2.30353.60398-3.32965.40216-1.02612.98566-1.92185,1.7505-2.6862.76435-.76484,1.67656-1.36483,2.73616-1.80096,1.05959-.43563,2.24008-.65394,3.54147-.65394,1.40829,0,2.61576.25528,3.6214.76484,1.00614.50956,1.77748,1.21696,2.31402,2.12268.53654.90522.80481,1.94833.80481,3.12882,0,1.19398-.20482,2.30353-.61347,3.32965-.40965,1.02612-.99615,1.92185-1.76049,2.6862-.76484.76484-1.67357,1.36533-2.72666,1.80096-1.0531.43613-2.23009.65394-3.53098.65394ZM969.51962,212.61786c.88524,0,1.68306-.15737,2.39445-.4726.71089-.31523,1.31787-.75136,1.82094-1.30788s.88824-1.20047,1.15651-1.93185c.26827-.73087.40266-1.49872.40266-2.30353,0-.76484-.16786-1.44177-.50307-2.03226-.33521-.58999-.82479-1.0461-1.46874-1.36833-.64395-.32172-1.43527-.48259-2.37447-.48259-.87175,0-1.66657.15786-2.38396.4726-.71789.31523-1.32786.75136-1.83093,1.30788-.50307.55702-.88524,1.20047-1.14702,1.93185-.26178.73087-.39216,1.49872-.39216,2.30353,0,.76484.16386,1.44226.49258,2.03226.32872.59049.8148,1.0461,1.45875,1.36833.64395.32172,1.43527.48259,2.37447.48259ZM973.30239,217.78893c-1.19398,0-2.25057-.29175-3.16929-.87525s-1.69355-1.43877-2.32401-2.5653l2.89752-.60348c.33521.73787.72088,1.26392,1.15701,1.57915.43563.31523.94869.47309,1.53918.47309.45611,0,.90223-.09042,1.33785-.27177.43613-.18085.8218-.44612,1.15701-.79482l1.02612,1.60962c-.42913.49608-.96268.86176-1.59963,1.09656s-1.31088.3522-2.02177.3522Z" fill="#fff"/>
          <path d="M985.15323,214.91189c-1.34135,0-2.4519-.26178-3.33015-.78483-.87875-.52305-1.49572-1.25742-1.85091-2.20311-.3557-.94569-.40615-2.06223-.15087-3.35013l1.58914-7.94769h2.61576l-1.58914,7.90723c-.26877,1.36833-.13788,2.39145.39216,3.06837.52955.67792,1.39131,1.01613,2.58529,1.01613,1.11355,0,2.01228-.32472,2.69619-.97566.68441-.65044,1.167-1.69355,1.44876-3.12882l1.58964-7.88724h2.55531l-1.58964,8.06859c-.41564,2.06573-1.20697,3.6184-2.37397,4.65751-1.167,1.04011-2.69619,1.55966-4.58757,1.55966Z" fill="#fff"/>
          <path d="M991.81303,214.71056l9.15466-14.08444h2.59578l3.501,14.08444h-2.59578l-2.93748-12.73659h1.0466l-7.96818,12.73659h-2.7966ZM995.39446,211.45086l1.10655-2.05224h7.5855l.34221,2.05224h-9.03426Z" fill="#fff"/>
          <path d="M1008.59366,214.71056l2.81709-14.08444h5.47281c1.70354,0,3.02141.37218,3.95361,1.11654s1.3983,1.78797,1.3983,3.12882c0,1.18049-.27127,2.19662-.8148,3.04839-.54303.85177-1.31787,1.50921-2.32401,1.97181-1.00614.4626-2.20012.69391-3.58143.69391h-4.58757l1.34835-1.18698-1.0466,5.31195h-2.63574ZM1012.21556,209.70035l-.88524-1.26741h4.26535c1.27441,0,2.26006-.28176,2.95797-.84528.6974-.56302,1.0461-1.38831,1.0461-2.47488,0-.76435-.25828-1.33436-.77434-1.71004-.51656-.37518-1.25792-.56352-2.2236-.56352h-4.10448l1.36833-1.30788-1.65009,8.169ZM1017.84923,214.71056l-2.87704-5.11062h2.77662l2.87704,5.11062h-2.77662Z" fill="#fff"/>
          <path d="M1026.0587,212.51744h7.96768l-.44262,2.19312h-10.56345l2.81709-14.08444h10.28169l-.44262,2.19312h-7.68642l-1.93135,9.69819ZM1027.06484,206.48111h7.02199l-.42264,2.15316h-7.02199l.42264-2.15316Z" fill="#fff"/>
          <path d="M1037.20565,214.85144c-.44262,0-.8148-.14737-1.11654-.44262-.30174-.29475-.45261-.67043-.45261-1.12703,0-.52305.17385-.94869.52305-1.27741.3487-.32872.75735-.49308,1.22745-.49308.44262,0,.81131.14438,1.10655.43263.29475.28875.44262.66743.44262,1.13703,0,.3487-.08043.65744-.24179.92521-.16086.26877-.37218.47659-.63346.62397-.26178.14737-.54703.22131-.85527.22131Z" fill="#fff"/>
        </g>
        <g>
          <path d="M647.74815,92.9259c0,2.96417-.64835,5.78-1.92663,8.39218-1.24119,2.57498-3.24199,5.22425-5.90969,7.83632l-.46314.46314-3.76065-1.7785.59272-.8892c1.59329-2.40831,2.79739-4.68693,3.53847-6.78034.74107-2.05643,1.13004-4.18682,1.13004-6.31732,0-2.2231-.37054-4.22379-1.07452-5.98375-.70387-1.72287-1.74142-3.24199-3.07521-4.48318-1.31536-1.25984-2.98261-2.2231-4.90935-2.89-1.94517-.68555-4.18671-1.03755-6.63211-1.03755-2.90854,0-5.57624.48169-7.96613,1.44506-2.35268.94483-4.39057,2.29716-6.05782,4.00149-1.64881,1.74142-2.96417,3.83483-3.85337,6.26168-.92628,2.4454-1.38942,5.20571-1.38942,8.20686,0,3.03824.42605,6.02084,1.27828,8.89241.85222,2.92697,1.92663,5.8726,3.2049,8.74406,1.29682,2.90854,2.70479,5.79854,4.24245,8.63302,1.53755,2.87146,2.98261,5.78,4.27942,8.65145,1.31525,2.89,2.42686,5.85406,3.31605,8.78115.8892,2.98261,1.33391,6.05793,1.33391,9.13314,0,3.1123-.50023,6.15053-1.48214,8.98502-.9818,2.83437-2.37123,5.48352-4.13119,7.83632-1.75996,2.3528-3.8718,4.52027-6.26168,6.42835-2.38977,1.9082-5.02038,3.53847-7.83632,4.87226-2.79739,1.31536-5.81709,2.3528-8.94793,3.05678s-6.35429,1.07452-9.57774,1.07452c-4.92789,0-9.31846-.7967-13.06057-2.3528-3.74222-1.57464-6.94712-3.66805-9.48513-6.26168-2.55655-2.61207-4.50184-5.63176-5.78011-9.02199-1.27816-3.37168-1.90808-6.91004-1.90808-10.52256,0-2.27873.24084-4.50172.74107-6.59513.48157-2.11195,1.18556-4.00161,2.07487-5.63187.8892-1.66724,1.98226-3.01969,3.22345-4.00149,1.31525-1.03743,2.76031-1.55621,4.31651-1.55621,1.4264,0,2.57498.40762,3.4272,1.22276.85222.83368,1.27828,1.96372,1.27828,3.3346,0,1.13004-.29647,2.07487-.87077,2.81594-.5372.68544-1.16713,1.24119-1.92663,1.70433-.68544.40751-1.44494.77805-2.24165,1.05598-.70398.24084-1.33379.50023-1.871.74096-.96337.44471-1.7785,1.22276-2.42686,2.31571-.66701,1.09306-1.019,2.90854-1.019,5.37249,0,2.57509.50023,5.24279,1.44506,7.89195.96337,2.64916,2.4454,5.09456,4.40912,7.24349,1.96372,2.14904,4.50172,3.92743,7.53996,5.27988,3.03812,1.35234,6.70628,2.03778,10.8931,2.03778,3.6495,0,7.15088-.55575,10.41141-1.66724,3.24199-1.11161,6.11345-2.76042,8.5403-4.90935,2.42686-2.1305,4.37203-4.85372,5.79854-8.07716,1.40797-3.22345,2.13038-7.03973,2.13038-11.31927,0-3.24199-.38897-6.26157-1.16713-8.9849-.79659-2.76031-1.77839-5.42801-2.94552-7.94747-1.18567-2.51958-2.48249-5.00195-3.87191-7.37329-1.40786-2.42686-2.74176-4.92778-3.94598-7.46578-1.2041-2.55655-2.22299-5.22425-3.03812-7.98456-.83368-2.77885-1.2413-5.85417-1.2413-9.15168,0-4.18682.72253-8.09571,2.18613-11.6526,1.44494-3.55701,3.53835-6.66931,6.2246-9.26283,2.68624-2.59364,5.96521-4.64996,9.72597-6.09502,3.76065-1.44494,8.0031-2.18601,12.61597-2.18601,3.31605,0,6.37283.40762,9.07751,1.18567,2.72333.77805,5.09456,1.94517,7.0213,3.44575,1.94517,1.51912,3.46429,3.37168,4.50172,5.53916s1.55609,4.61287,1.55609,7.29912Z" fill="#fff"/>
          <path d="M709.74889,102.94834l-3.98295,10.93007c-.09261-.74096-.2223-1.46349-.38908-2.16747-.46314-2.05632-1.24119-3.83483-2.33425-5.29831-1.11149-1.48214-2.57498-2.64916-4.37203-3.48283-1.75996-.81513-3.96452-1.22276-6.57659-1.22276-2.4454,0-5.09456.37054-7.87341,1.07452-2.76031.70398-5.61333,1.79705-8.46624,3.22345-2.83437,1.44506-5.70594,3.27908-8.5403,5.46509-2.83448,2.20456-5.57624,4.85372-8.15134,7.89195-2.57509,3.01969-4.98341,6.52107-7.16942,10.39287-2.18601,3.89034-4.09421,8.24394-5.66885,12.96797-1.14858,3.40877-2.03778,6.87306-2.64916,10.26318-.61138,3.39023-.92628,6.68785-.92628,9.76306,0,2.89.29636,5.57624.87065,8.0031.59283,2.46395,1.53766,4.64996,2.81594,6.50253,1.29682,1.87111,2.98261,3.35314,5.00195,4.39057,2.0008,1.03743,4.46464,1.57464,7.28057,1.57464,5.85406,0,11.67115-2.40831,17.30302-7.13234,4.05713-3.39023,8.16977-8.09571,12.26398-14.02394l-19.74842,54.2432h11.68969l41.23815-113.35855h-11.61563ZM661.04496,178.10687c-2.63061,0-4.46464-.81502-5.66885-2.50092-1.24119-1.7785-1.88965-4.27942-1.88965-7.44735,0-2.90843.51877-6.61356,1.51912-11.00425,1.00046-4.409,2.53801-9.26283,4.55735-14.45,2.42686-6.20605,5.15008-11.68969,8.07716-16.28402,2.92709-4.59433,5.94678-8.42916,8.96647-11.4303,3.00115-2.98272,5.96521-5.22425,8.83667-6.66931,2.83448-1.4264,5.42801-2.14893,7.70674-2.14893,1.11149,0,2.20456.18521,3.24199.5372,1.00035.33345,1.90808.92628,2.68624,1.74142.79659.83368,1.46349,1.96372,1.96372,3.3346.50012,1.38942.7595,3.14939.7595,5.24279,0,2.3528-.33345,5.05747-1.00035,8.04019-.64847,3.00115-1.61172,6.20605-2.83448,9.52211-1.2041,3.31617-2.68624,6.74337-4.35349,10.17057-1.66736,3.42732-3.53847,6.81754-5.52073,10.04099-2.00069,3.24199-4.13119,6.3172-6.35429,9.17023-2.22299,2.83437-4.5387,5.33529-6.89149,7.4287-2.33425,2.09341-4.72402,3.76076-7.05827,4.94643-2.29716,1.16713-4.5759,1.75985-6.74337,1.75985Z" fill="#fff"/>
          <path d="M818.36027,142.35236c-.05563.12969-.09261.24084-.12969.37054-.40751,1.24119-.79659,2.48249-1.13004,3.72368-.61138,2.18601-1.11161,4.37203-1.50057,6.5395-.03709.22241-.07418.44471-.11115.64847-.14824.83368-.27793,1.64881-.37054,2.4454-1.92663,3.22345-3.81628,6.15053-5.63176,8.74406-2.92709,4.1313-5.87272,7.59559-8.79969,10.30027-2.94563,2.72333-6.02084,4.77965-9.11471,6.09502-3.13084,1.33379-6.48398,2.00069-9.98536,2.00069-2.74176,0-5.22414-.42605-7.33609-1.27828-2.1305-.85211-3.96452-2.07487-5.40946-3.6495-1.4636-1.55621-2.55655-3.48283-3.29762-5.66885-.72253-2.16747-1.09306-4.61287-1.09306-7.26203,0-1.74142.16678-3.63107.46314-5.65042.03709-.20376.07418-.40751.11126-.62981-1.87111,2.94552-3.70513,5.61322-5.48364,7.96601-2.72333,3.63107-5.48364,6.66919-8.20686,9.04053-2.76031,2.40831-5.65031,4.20536-8.57739,5.37249-2.92709,1.16701-6.07647,1.75985-9.35544,1.75985-2.76042,0-5.22425-.42605-7.3362-1.27828-2.14893-.85211-3.96452-2.07487-5.42801-3.6495-1.44506-1.55621-2.55655-3.48283-3.29762-5.66885-.72242-2.16747-1.07441-4.61287-1.07441-7.26203,0-2.31571.27782-4.87226.81513-7.61413.55575-2.72322,1.37088-5.61322,2.42686-8.59582l16.82122-46.20301h11.61563l-17.06218,46.83282c-.61127,1.6859-1.2041,3.40877-1.81548,5.16862-.59283,1.72299-1.13004,3.4644-1.57464,5.15019-.4446,1.66736-.81513,3.31605-1.09306,4.87226-.27782,1.51912-.40751,2.94552-.40751,4.22379,0,2.74188.72242,4.94643,2.16747,6.53961,1.42651,1.57464,3.66805,2.37123,6.66919,2.37123,2.76031,0,5.48364-.61127,8.07728-1.79694,2.63061-1.22264,5.27977-3.07521,7.85486-5.53916,2.63061-2.48249,5.29831-5.65031,7.92893-9.39253,2.6677-3.7792,5.44655-8.29946,8.28103-13.41256l3.2049-5.72448,14.35739-39.29286h11.61563l-17.06218,46.83282c-.61138,1.6859-1.22264,3.40877-1.83402,5.16862-.59283,1.72299-1.11149,3.4644-1.57464,5.15019-.44471,1.66736-.81513,3.31605-1.07452,4.87226-.27793,1.51912-.42617,2.94552-.42617,4.22379,0,2.74188.72253,4.94643,2.14904,6.55816,1.38942,1.55609,3.6495,2.35268,6.70628,2.35268,2.76031,0,5.46509-.61127,8.04019-1.79694,2.61207-1.22264,5.24268-3.07521,7.83632-5.53916,2.61207-2.48249,5.27977-5.65031,7.9105-9.42961,2.6677-3.79774,5.48352-8.29946,8.35498-13.37548l3.18647-5.61333Z" fill="#fff"/>
          <path d="M966.3016,104.54152c-1.79705-1.88965-4.29797-2.83448-7.41027-2.83448-2.26019,0-4.5759.57429-6.91004,1.72287-2.29728,1.13015-4.77965,3.01969-7.35475,5.61333-2.53801,2.57509-5.3354,5.98375-8.29946,10.15203-1.53766,2.16758-3.16793,4.61287-4.8908,7.31766l8.59594-23.56459h-11.61563l-14.46854,39.70049v.01854l-2.94552,5.29831c-2.83448,5.13153-5.63187,9.63337-8.28103,13.43111-2.64916,3.7792-5.31686,6.96567-7.92893,9.44804-2.57509,2.4454-5.22425,4.29797-7.85498,5.48364-2.59353,1.18567-5.31686,1.77839-8.07716,1.77839-3.05667,0-5.31686-.79659-6.70628-2.35268-1.42651-1.61172-2.14893-3.81628-2.14893-6.55816,0-1.27828.14812-2.70467.40751-4.22379.27793-1.55621.64847-3.2049,1.09306-4.87226.4446-1.68579.9818-3.4272,1.57464-5.15019.61138-1.75985,1.22276-3.48272,1.81548-5.16862l17.06218-46.83282h-11.59708l-4.00149,10.93007c-.09261-.74096-.2223-1.46349-.37054-2.16747-.46314-2.05632-1.25973-3.83483-2.3528-5.29831-1.11149-1.48214-2.57498-2.64916-4.35349-3.48283-1.7785-.81513-3.98306-1.22276-6.57659-1.22276-2.46395,0-5.1131.37054-7.89195,1.07452-2.76031.70398-5.61333,1.79705-8.4477,3.22345-2.85302,1.44506-5.72448,3.27908-8.55885,5.46509-2.83448,2.20456-5.57624,4.85372-8.15134,7.89195-2.55655,3.01969-4.98341,6.52107-7.16942,10.39287-2.1305,3.7792-4.00149,8.02164-5.53916,12.59743-.05563.12969-.09261.24084-.12969.37054-.40751,1.24119-.79659,2.48249-1.13004,3.72368-.61138,2.18601-1.11161,4.37203-1.50057,6.5395-.03709.22241-.07418.44471-.11115.64847-.14824.83368-.27793,1.64881-.37054,2.4454-.29647,2.29716-.4446,4.53881-.4446,6.66919,0,2.89.27782,5.57624.87065,8.0031.57429,2.46395,1.53766,4.64996,2.79739,6.50253,1.29682,1.87111,2.98261,3.35314,5.00195,4.39057,2.0008,1.03743,4.46464,1.57464,7.29912,1.57464,5.92824,0,11.81938-2.48238,17.52521-7.35463,4.64996-3.98306,9.39253-9.67046,14.11666-16.95103-.03709.27793-.09272.53732-.12969.79659-.31502,2.01935-.46314,3.909-.46314,5.65042,0,2.64916.37042,5.09456,1.09295,7.26203.72253,2.18601,1.83402,4.11264,3.27908,5.66885,1.46349,1.57464,3.27908,2.79739,5.42801,3.6495,2.11195.85222,4.59433,1.27828,7.3362,1.27828,3.50126,0,6.85441-.6669,9.94827-2.00069,3.07521-1.31536,6.13199-3.37168,9.05896-6.09502,2.89011-2.70467,5.83563-6.16897,8.74417-10.30027.48169-.70398.9818-1.4264,1.48203-2.16747l-7.03973,19.32226h11.67115l12.46774-34.45769,3.26054-5.74302c4.05713-7.15088,7.72528-13.09766,10.93019-17.71053,3.18636-4.57579,6.11345-8.24394,8.67-10.8931,2.51946-2.59353,4.77965-4.44609,6.72483-5.44655,1.88965-1.00035,3.66805-1.50057,5.24279-1.50057,1.46349,0,2.57498.29647,3.29751.87077.48169.38897.79659.7595.92628,1.09295l-.07406-.01854c-.48169-.09261-1.01889-.14812-1.55621-.14812-.8892,0-1.72287.2223-2.46383.64835-.72253.40762-1.33391.92628-1.83414,1.55621-.50012.62981-.8892,1.35234-1.16713,2.18601-.25927.79659-.40751,1.61172-.40751,2.40831,0,1.00035.20376,1.9082.59283,2.68624.37054.7595.87065,1.40797,1.48203,1.94517s1.33391.94483,2.11195,1.18567c.77805.25939,1.55609.37054,2.3528.37054,1.11149,0,2.13038-.25939,3.03812-.75962s1.66736-1.18567,2.29716-2.01923c.59283-.83368,1.07452-1.81559,1.37099-2.94563.3149-1.09306.46314-2.26008.46314-3.46429,0-2.96406-.90785-5.42801-2.70479-7.28057ZM864.15106,144.76067c-1.66724,3.42732-3.53835,6.81754-5.52061,10.04099-2.0008,3.24199-4.13119,6.3172-6.35429,9.17023-2.2231,2.83437-4.53881,5.33529-6.89161,7.4287-2.35268,2.09341-4.72402,3.76076-7.07682,4.94643-2.27862,1.16713-4.55724,1.75985-6.74326,1.75985-2.61218,0-4.46475-.81502-5.65042-2.50092-1.25973-1.7785-1.88954-4.27942-1.88954-7.44735,0-2.90843.51866-6.61356,1.51912-11.00425,1.00035-4.409,2.53801-9.26283,4.5387-14.45,2.4454-6.20605,5.16873-11.68969,8.09582-16.28402,2.92697-4.59433,5.94667-8.42916,8.96636-11.4303,2.98261-2.98272,5.96532-5.22425,8.83678-6.66931,2.83437-1.4264,5.42801-2.14893,7.68808-2.14893,1.11161,0,2.20456.18521,3.26054.5372,1.00046.33345,1.9082.92628,2.68624,1.74142.79659.83368,1.46349,1.96372,1.94517,3.3346.51877,1.38942.75962,3.14939.75962,5.24279,0,2.3528-.33345,5.05747-.98191,8.04019-.6669,3.00115-1.61172,6.20605-2.83437,9.52211-1.22276,3.31617-2.68624,6.74337-4.3536,10.17057Z" fill="#fff"/>
          <path d="M1035.63855,141.09263l-3.8718,6.87306c-2.14904,3.76065-4.68705,7.50287-7.53996,11.1154-2.87146,3.59398-6.05793,6.85452-9.50368,9.6518-3.4272,2.79739-7.22505,5.09456-11.24509,6.81754-3.98295,1.68579-8.24394,2.55644-12.65306,2.55644-5.18716,0-9.00345-1.24119-11.35624-3.72356-2.35268-2.48249-3.5569-6.65076-3.5569-12.41222,0-3.87191.37054-7.72517,1.05598-11.44885.6669-3.51992,1.57464-6.94712,2.72333-10.2262,4.96486-.03709,9.48513-.38908,13.43111-1.09306,4.13119-.72242,7.96601-1.83402,11.39322-3.27897,2.79739-1.14858,5.3354-2.51946,7.57705-4.09421,2.24153-1.57464,4.18682-3.31605,5.79854-5.13165,1.63027-1.85257,2.89-3.85326,3.74211-5.92812.87077-2.09341,1.31536-4.27942,1.31536-6.48398,0-3.96452-1.38942-7.09536-4.09421-9.29992-2.64916-2.16747-6.29866-3.27908-10.83747-3.27908-4.42766,0-8.87375,1.05598-13.22735,3.14939-4.33494,2.07487-8.42916,4.98341-12.17138,8.65145-3.74211,3.63107-7.09525,8.02164-9.96682,13.0236-2.87146,5.00195-5.11299,10.50402-6.70628,16.37662-.68544,2.63073-1.22264,5.24279-1.53755,7.74383-.33356,2.50092-.50023,4.90923-.50023,7.15088,0,8.33655,2.24165,14.72793,6.66919,19.00735,4.40912,4.24234,10.74486,6.40981,18.8036,6.40981,4.90923,0,9.61482-.85211,13.98685-2.50092,4.33506-1.66736,8.46624-3.98306,12.28253-6.91004,3.79774-2.92709,7.35463-6.44701,10.5782-10.48559,3.2049-4.00149,6.20605-8.4477,8.91084-13.20881l3.79774-6.72483-3.29762-2.29716ZM1009.83231,106.17179c.87077,0,1.6859.09261,2.4454.29636.68544.18532,1.29682.48169,1.79705.88931.50012.40751.87065.92628,1.16713,1.57464.29636.6669.4446,1.51912.4446,2.55655,0,2.2231-.42617,4.37203-1.27828,6.42835-.85222,2.07487-1.98226,4.03858-3.39023,5.83563-1.38942,1.79694-3.01969,3.4272-4.83517,4.81663-1.83402,1.40797-3.72368,2.57509-5.66885,3.44586-2.4454,1.14858-5.35394,2.0933-8.67,2.83437-2.98272.6669-6.55816,1.07452-10.6708,1.22276,1.55609-4.02015,3.37168-7.7808,5.42801-11.20812,2.26008-3.79774,4.70548-7.11379,7.29912-9.91119,2.57509-2.76031,5.27977-4.94632,8.02164-6.50253,2.68613-1.51912,5.35383-2.27862,7.91038-2.27862Z" fill="#fff"/>
        </g>
      </g>
    </g>
  </g>
</svg>