<?xml version="1.0" encoding="UTF-8"?>
<svg id="Layer_2" data-name="Layer 2" xmlns="http://www.w3.org/2000/svg" width="754.93617" height="277.20568" viewBox="0 0 754.93617 277.20568">
  <g id="Layer_1-2" data-name="Layer 1">
    <g>
      <g>
        <path d="M31.70853,53.57674c-5.31821,9.19856-8.01438,19.3169-8.01438,30.06973,0,10.76335,2.69618,20.87117,8.01438,30.06973,5.30769,9.19856,12.66648,16.55735,21.86504,21.86504,9.18797,5.31821,19.30638,8.0038,30.06973,8.0038h71.79094c6.54588,0,11.85236,5.30648,11.85236,11.85236v.00002c0,6.54588-5.30648,11.85236-11.85236,11.85236h-71.79094c-23.02805,0-42.9371-8.23637-59.17727-24.46603C8.23637,126.58356,0,106.67451,0,83.64646S8.23637,40.70937,24.46603,24.46913C40.7062,8.23954,60.61525.00317,83.6433.00317h71.79094c6.54588,0,11.85236,5.30648,11.85236,11.85236v.00002c0,6.54588-5.30648,11.85236-11.85236,11.85236h-71.79094c-10.75276,0-20.87117,2.68553-30.06973,8.0038-9.19856,5.31821-16.55735,12.66648-21.86504,21.86504Z" fill="#fff"/>
        <path d="M338.69966,24.46708C322.47198,8.23957,302.55743,0,279.52864,0s-42.92935,8.23957-59.17102,24.46708c-16.22768,16.24183-24.46725,36.15638-24.46725,59.18516s8.23957,42.92935,24.46725,59.17084c16.24166,16.22785,36.14223,24.46725,59.17102,24.46725s42.94333-8.2394,59.17102-24.46725c16.24166-16.24149,24.46725-36.14206,24.46725-59.17084s-8.22559-42.94333-24.46725-59.18516ZM331.46564,113.7196c-5.32078,9.18911-12.68053,16.54869-21.86964,21.85558-9.1892,5.32087-19.31405,8.01607-30.06736,8.01607-10.76729,0-20.87816-2.69521-30.06727-8.01607-9.20318-5.30689-16.56292-12.66646-21.86972-21.85558-5.32078-9.20326-8.01607-19.31413-8.01607-30.06736s2.69529-20.87824,8.01607-30.08133c5.3068-9.18928,12.66655-16.53505,21.86972-21.85575,9.20309-5.32069,19.29998-8.0021,30.06727-8.0021,10.75331,0,20.86418,2.6814,30.06736,8.0021,9.18911,5.32069,16.54886,12.68044,21.86964,21.85575,5.3068,9.20309,8.0021,19.32794,8.0021,30.08133s-2.69529,20.86409-8.0021,30.06736Z" fill="#fff"/>
        <path d="M534.58342,24.46913C518.35383,8.23954,498.44478.00317,475.41674.00317h-71.79101c-6.54588,0-11.85236,5.30648-11.85236,11.85236v.00002c0,6.54588,5.30648,11.85236,11.85236,11.85236h71.79101c10.75276,0,20.86059,2.68553,30.05914,8.0038,9.19849,5.31821,16.55735,12.66648,21.87562,21.86504,5.30762,9.19856,8.00373,19.3169,8.00373,30.06973s-2.69611,20.87117-8.00373,30.06973c-5.31827,9.19856-12.67713,16.55735-21.87562,21.86504-9.18797,5.31821-19.30638,8.0038-30.05914,8.0038h-71.79101c-6.54588,0-11.85236,5.30648-11.85236,11.85236v.00002c0,6.54588,5.30648,11.85236,11.85236,11.85236h71.79101c23.02805,0,42.9371-8.23637,59.16669-24.46603,16.24017-16.24017,24.46603-36.14922,24.46603-59.17727s-8.22586-42.9371-24.46603-59.17733Z" fill="#fff"/>
        <path d="M701.18281,72.94655c-2.87584-2.86532-6.56588-4.37725-10.68933-4.37725s-7.82407,1.51194-10.68933,4.38784c-2.8759,2.86525-4.38784,6.56582-4.38784,10.68933s1.51194,7.82401,4.38784,10.68933c2.86525,2.87584,6.56582,4.38784,10.68933,4.38784s7.82401-1.512,10.68933-4.38784c2.8759-2.86532,4.38784-6.56588,4.38784-10.68933s-1.51194-7.81349-4.38784-10.69991Z" fill="#fff"/>
        <path d="M294.59718,83.65225c0,4.1197-1.50819,7.82054-4.38504,10.68333-2.86296,2.87694-6.56371,4.3853-10.6835,4.3853-4.13376,0-7.83452-1.50836-10.69739-4.3853-2.87685-2.86279-4.38513-6.56363-4.38513-10.68333,0-4.13368,1.50828-7.83469,4.38513-10.69748,2.86287-2.87677,6.56363-4.38513,10.69739-4.38513,4.11978,0,7.80665,1.50836,10.6835,4.37115,2.87685,2.89074,4.38504,6.57778,4.38504,10.71145Z" fill="#fff"/>
        <path d="M641.22308,31.7117c9.19856-5.31827,19.31696-8.0038,30.06973-8.0038h71.79101c6.54588,0,11.85236-5.30648,11.85236-11.85236v-.00002C754.93617,5.30965,749.62969.00317,743.08381.00317h-71.79101c-23.02805,0-42.9371,8.23637-59.16669,24.46596-16.24024,16.24024-24.46603,36.14922-24.46603,59.17733s8.22579,42.9371,24.46603,59.17727c16.22959,16.22965,36.13864,24.46603,59.16669,24.46603h71.79101c6.54588,0,11.85236-5.30648,11.85236-11.85236v-.00002c0-6.54588-5.30648-11.85236-11.85236-11.85236h-71.79101c-10.75276,0-20.87117-2.68559-30.06973-8.0038-9.18797-5.30769-16.54677-12.66648-21.86504-21.86504-5.30762-9.19856-8.0038-19.30638-8.0038-30.06973,0-10.75283,2.69618-20.87117,8.0038-30.06973,5.31827-9.19856,12.67706-16.54683,21.86504-21.86504Z" fill="#fff"/>
      </g>
      <g>
        <path d="M133.98457,255.92239v-.94468h1.86143v.94468c0,1.90799-.44949,3.68138-1.34761,5.32019-.89897,1.63965-2.12554,2.96864-3.68138,3.98781-1.55585,1.01833-3.26999,1.60241-5.14073,1.75054v10.22475h-1.88937v-10.22475c-1.87074-.14814-3.58404-.73221-5.13989-1.75054-1.55669-1.01917-2.78326-2.34816-3.68223-3.98781-.89813-1.6388-1.34761-3.4122-1.34761-5.32019v-.94468h1.86228v.94468c0,1.66674.41139,3.20904,1.23588,4.62607s1.94947,2.53778,3.3758,3.36226,2.97372,1.23588,4.64046,1.23588c1.66759,0,3.21412-.41139,4.64046-1.23588s2.55132-1.94523,3.3758-3.36226c.82363-1.41702,1.23672-2.95933,1.23672-4.62607Z" fill="#fff"/>
        <path d="M144.65373,258.22822c2.16701-2.16701,4.78775-3.25052,7.86304-3.25052,3.07445,0,5.69603,1.08351,7.86304,3.25052,2.16786,2.16701,3.25137,4.78859,3.25137,7.86304,0,3.0753-1.08351,5.69603-3.25137,7.86389-2.16701,2.16701-4.78859,3.25052-7.86304,3.25052-3.0753,0-5.69603-1.08351-7.86304-3.25052-2.16701-2.16786-3.25137-4.78859-3.25137-7.86389,0-3.07445,1.08435-5.69603,3.25137-7.86304ZM147.87632,274.10753c1.42634.82448,2.97372,1.23672,4.64046,1.23672,1.66759,0,3.21412-.41224,4.64046-1.23672,1.42634-.82363,2.55132-1.94947,3.3758-3.3758.82363-1.42634,1.23672-2.97287,1.23672-4.64046,0-1.66674-.41309-3.21328-1.23672-4.63961-.82448-1.42634-1.94947-2.55217-3.3758-3.37665-1.42634-.82363-2.97287-1.23588-4.64046-1.23588-1.66674,0-3.21412.41224-4.64046,1.23588-1.42634.82448-2.55132,1.95031-3.3758,3.37665-.82448,1.42634-1.23588,2.97287-1.23588,4.63961,0,1.66759.41139,3.21412,1.23588,4.64046.82448,1.42634,1.94947,2.55217,3.3758,3.3758ZM153.50293,265.10511c.26834.26834.40293.59762.40293.98616,0,.38939-.13459.71867-.40293.98701s-.59678.40208-.98616.40208c-.38854,0-.71782-.13375-.98616-.40208-.26918-.26834-.40293-.59762-.40293-.98701,0-.38854.13375-.71782.40293-.98616.26834-.26834.59762-.40293.98616-.40293.38939,0,.71782.13459.98616.40293Z" fill="#fff"/>
        <path d="M189.55579,266.09127v-11.11357h1.86143v11.11357c0,3.0753-1.08351,5.69603-3.25137,7.86389-2.16701,2.16701-4.78859,3.25052-7.86304,3.25052-3.0753,0-5.69603-1.08351-7.86304-3.25052-2.16701-2.16786-3.25137-4.78859-3.25137-7.86389v-11.11357h1.86228v11.11357c0,1.66759.41139,3.21412,1.23588,4.64046s1.94947,2.55217,3.3758,3.3758c1.42634.82448,2.97372,1.23672,4.64046,1.23672,1.66759,0,3.21412-.41224,4.64046-1.23672,1.42634-.82363,2.55132-1.94947,3.3758-3.3758.82363-1.42634,1.23672-2.97287,1.23672-4.64046Z" fill="#fff"/>
        <path d="M213.67313,256.83913h-1.86143v18.50512h1.86143v1.86143h-5.58514v-1.86143h1.86228v-18.50512h-1.86228v-1.86143h5.58514v1.86143Z" fill="#fff"/>
        <path d="M238.23488,254.9777c1.90799,0,3.54256.68058,4.90456,2.04173,1.36116,1.362,2.04173,2.99657,2.04173,4.90456v15.28168h-1.86143v-15.28168c0-1.38994-.49604-2.58433-1.48644-3.58488-.99124-.9997-2.19072-1.49998-3.59843-1.49998s-2.60719.50028-3.59758,1.49998c-.99124,1.00055-1.48728,2.19495-1.48728,3.58488v15.28168h-1.88937v-15.28168c0-1.38994-.4952-2.58433-1.48644-3.58488-.99124-.9997-2.19072-1.49998-3.59758-1.49998-1.40856,0-2.60804.50028-3.59843,1.49998-.99124,1.00055-1.48644,2.19495-1.48644,3.58488v15.28168h-1.86228v-15.28168c0-1.90799.68142-3.54256,2.04258-4.90456,1.36116-1.36116,2.99573-2.04173,4.90456-2.04173,1.27735,0,2.4489.31489,3.51463.94468,1.06488.62979,1.90291,1.4822,2.51408,2.55555.61201-1.07335,1.44919-1.92576,2.51492-2.55555,1.06488-.62979,2.23643-.94468,3.51463-.94468Z" fill="#fff"/>
        <path d="M250.73839,277.20568l12.5035-22.22798,12.47642,22.22798h-2.27875l-10.19766-18.19953-10.22475,18.19953h-2.27875Z" fill="#fff"/>
        <path d="M280.7473,273.95516c-2.16701-2.16786-3.25137-4.78859-3.25137-7.86389,0-3.07445,1.08435-5.69603,3.25137-7.86304,2.16701-2.16701,4.78775-3.25052,7.86304-3.25052h11.11441v1.86143h-11.11441c-1.66674,0-3.21412.41224-4.64046,1.23588-1.42634.82448-2.55132,1.95031-3.3758,3.37665s-1.23588,2.97287-1.23588,4.63961c0,1.66759.41139,3.21412,1.23588,4.64046s1.94947,2.55217,3.3758,3.3758c1.42634.82448,2.97372,1.23672,4.64046,1.23672h9.25298v-8.3083h-6.11335v-1.88937h7.97478v12.0591h-11.11441c-3.0753,0-5.69603-1.08351-7.86304-3.25052Z" fill="#fff"/>
        <path d="M310.86626,256.83913h-1.86143v18.50512h1.86143v1.86143h-5.58514v-1.86143h1.86228v-18.50512h-1.86228v-1.86143h5.58514v1.86143Z" fill="#fff"/>
        <path d="M319.67483,258.22822c2.16701-2.16701,4.78775-3.25052,7.86304-3.25052,3.07445,0,5.69603,1.08351,7.86304,3.25052,2.16786,2.16701,3.25137,4.78859,3.25137,7.86304v11.11441h-1.86143v-11.11441c0-1.66674-.41309-3.21328-1.23672-4.63961-.82448-1.42634-1.94947-2.55217-3.3758-3.37665-1.42634-.82363-2.97287-1.23588-4.64046-1.23588-1.66674,0-3.21412.41224-4.64046,1.23588-1.42634.82448-2.55132,1.95031-3.3758,3.37665s-1.23588,2.97287-1.23588,4.63961v11.11441h-1.86228v-11.11441c0-3.07445,1.08435-5.69603,3.25137-7.86304Z" fill="#fff"/>
        <path d="M347.46002,273.95516c-2.16701-2.16786-3.25137-4.78859-3.25137-7.86389,0-3.07445,1.08435-5.69603,3.25137-7.86304,2.16701-2.16701,4.78775-3.25052,7.86304-3.25052h11.11441v1.86143h-11.11441c-2.38964,0-4.45931.80163-6.20985,2.40318-1.75054,1.60241-2.74686,3.57049-2.98726,5.90427h20.31153v1.88937h-20.31153c.2404,2.33462,1.23672,4.30271,2.98726,5.90427,1.75054,1.60325,3.82021,2.40403,6.20985,2.40403h11.11441v1.86143h-11.11441c-3.0753,0-5.69603-1.08351-7.86304-3.25052Z" fill="#fff"/>
        <path d="M383.51118,276.80275c-.26834-.26834-.40293-.59762-.40293-.98616,0-.38939.13459-.71782.40293-.98616s.59762-.40293.98701-.40293c.38854,0,.71698.13459.98616.40293.26834.26834.40293.59678.40293.98616,0,.38854-.13459.71782-.40293.98616-.26918.26918-.59762.40293-.98616.40293-.38939,0-.71867-.13375-.98701-.40293Z" fill="#fff"/>
        <path d="M391.84656,276.80275c-.26834-.26834-.40293-.59762-.40293-.98616,0-.38939.13459-.71782.40293-.98616s.59762-.40293.98701-.40293c.38854,0,.71698.13459.98616.40293.26834.26834.40293.59678.40293.98616,0,.38854-.13459.71782-.40293.98616-.26918.26918-.59762.40293-.98616.40293-.38939,0-.71867-.13375-.98701-.40293Z" fill="#fff"/>
        <path d="M400.1828,276.80275c-.26834-.26834-.40293-.59762-.40293-.98616,0-.38939.13459-.71782.40293-.98616s.59762-.40293.98701-.40293c.38854,0,.71698.13459.98616.40293.26834.26834.40293.59678.40293.98616,0,.38854-.13459.71782-.40293.98616-.26918.26918-.59762.40293-.98616.40293-.38939,0-.71867-.13375-.98701-.40293Z" fill="#fff"/>
        <path d="M443.31992,270.25939v-15.28168h1.86143v15.28168c0,1.90799-.68058,3.54256-2.04173,4.90372-1.362,1.362-2.99657,2.04258-4.90456,2.04258-1.2782,0-2.44974-.31489-3.51463-.94468-1.06573-.62979-1.90291-1.48136-2.51492-2.5564-.61117,1.07504-1.44919,1.92661-2.51408,2.5564-1.06573.62979-2.23727.94468-3.51463.94468-1.90883,0-3.54341-.68058-4.90456-2.04258-1.36116-1.36116-2.04258-2.99573-2.04258-4.90372v-15.28168h1.86228v15.28168c0,1.40771.4952,2.60719,1.48644,3.59843.99039.99124,2.18987,1.48644,3.59843,1.48644,1.40687,0,2.60634-.50028,3.59758-1.50083.99124-.9997,1.48644-2.19495,1.48644-3.58404v-15.28168h1.88937v15.28168c0,1.38909.49604,2.58433,1.48728,3.58404.99039,1.00055,2.18987,1.50083,3.59758,1.50083s2.60719-.50028,3.59843-1.50083c.99039-.9997,1.48644-2.19495,1.48644-3.58404Z" fill="#fff"/>
        <path d="M453.98993,273.95516c-2.16701-2.16786-3.25137-4.78859-3.25137-7.86389,0-3.07445,1.08435-5.69603,3.25137-7.86304,2.16701-2.16701,4.78775-3.25052,7.86304-3.25052h11.11441v1.86143h-11.11441c-2.38964,0-4.45931.80163-6.20985,2.40318-1.75054,1.60241-2.74686,3.57049-2.98726,5.90427h20.31153v1.88937h-20.31153c.2404,2.33462,1.23672,4.30271,2.98726,5.90427,1.75054,1.60325,3.82021,2.40403,6.20985,2.40403h11.11441v1.86143h-11.11441c-3.0753,0-5.69603-1.08351-7.86304-3.25052Z" fill="#fff"/>
        <path d="M492.88953,273.95516c-2.16701-2.16786-3.25137-4.78859-3.25137-7.86389,0-3.07445,1.08435-5.69603,3.25137-7.86304s4.78775-3.25052,7.86304-3.25052h11.11441v1.86143h-11.11441c-1.66674,0-3.21412.41224-4.64046,1.23588-1.42634.82448-2.55132,1.95031-3.3758,3.37665-.82448,1.42634-1.23588,2.97287-1.23588,4.63961,0,1.66759.41139,3.21412,1.23588,4.64046s1.94947,2.55217,3.3758,3.3758c1.42634.82448,2.97372,1.23672,4.64046,1.23672h11.11441v1.86143h-11.11441c-3.0753,0-5.69603-1.08351-7.86304-3.25052Z" fill="#fff"/>
        <path d="M539.65217,261.0064c0,1.05642-.25479,2.03327-.76438,2.93139-.50959.89897-1.19016,1.6168-2.04173,2.15347.85157.53752,1.53215,1.25534,2.04173,2.15347.50959.89897.76438,1.87582.76438,2.93139v6.02955h-1.86143v-6.02955c0-1.14784-.40801-2.12554-1.22318-2.93139s-1.79625-1.20879-2.94494-1.20879h-14.337v10.16973h-1.86228v-22.22798h16.19928c1.66674,0,3.08884.58746,4.26546,1.76409,1.17577,1.17662,1.76409,2.59788,1.76409,4.26462ZM519.28562,256.83913v8.30745h14.337c1.14869,0,2.12977-.40293,2.94494-1.20879s1.22318-1.78271,1.22318-2.93139c0-1.14784-.40801-2.12977-1.22318-2.94494s-1.79625-1.22233-2.94494-1.22233h-14.337Z" fill="#fff"/>
        <path d="M548.4599,273.95516c-2.16701-2.16786-3.25137-4.78859-3.25137-7.86389,0-3.07445,1.08435-5.69603,3.25137-7.86304s4.78775-3.25052,7.86304-3.25052h11.11441v1.86143h-11.11441c-2.38964,0-4.45931.80163-6.20985,2.40318-1.75054,1.60241-2.74686,3.57049-2.98726,5.90427h20.31153v1.88937h-20.31153c.2404,2.33462,1.23672,4.30271,2.98726,5.90427,1.75054,1.60325,3.82021,2.40403,6.20985,2.40403h11.11441v1.86143h-11.11441c-3.0753,0-5.69603-1.08351-7.86304-3.25052Z" fill="#fff"/>
        <path d="M572.99456,277.20568l12.5035-22.22798,12.47642,22.22798h-2.27875l-10.19766-18.19953-10.22475,18.19953h-2.27875Z" fill="#fff"/>
        <path d="M595.47225,256.83913v-1.86143h22.22883v1.86143h-10.16973v20.36655h-1.88937v-20.36655h-10.16973Z" fill="#fff"/>
        <path d="M622.34154,273.95516c-2.16701-2.16786-3.25137-4.78859-3.25137-7.86389,0-3.07445,1.08435-5.69603,3.25137-7.86304s4.78775-3.25052,7.86304-3.25052h11.11441v1.86143h-11.11441c-2.38964,0-4.45931.80163-6.20985,2.40318-1.75054,1.60241-2.74686,3.57049-2.98726,5.90427h20.31153v1.88937h-20.31153c.2404,2.33462,1.23672,4.30271,2.98726,5.90427,1.75054,1.60325,3.82021,2.40403,6.20985,2.40403h11.11441v1.86143h-11.11441c-3.0753,0-5.69603-1.08351-7.86304-3.25052Z" fill="#fff"/>
      </g>
      <g>
        <path d="M89.36651,203.01865c-.66718.66723-.97832,1.41737-.97832,2.35768,0,.93688.30768,1.68015.9714,2.33696.66035.64997,1.43472.96799,2.36464.96799h11.51885c2.25741,0,4.21064.80898,5.80779,2.40262,1.59369,1.59719,2.40266,3.55038,2.40266,5.80783,0,1.93582-.59306,3.64604-1.76394,5.0982-1.62516,2.01555-4.13343,3.11226-6.72256,3.11226h-17.01778c-1.34507,0-2.43547-1.0904-2.43547-2.43548h0c0-1.34508,1.0904-2.43548,2.43547-2.43548h17.29383c.96784,0,1.73643-.33207,2.424-1.04955.56195-.58639.89076-1.37148.91068-2.18342.02422-.98735-.28481-1.76194-.97358-2.44349-.66026-.64992-1.43117-.96799-2.36109-.96799h-11.51885c-2.26091,0-4.2141-.80893-5.80783-2.40262-1.59369-1.59369-2.40262-3.54692-2.40262-5.80783s.80893-4.2141,2.40262-5.80779c1.59373-1.59715,3.55038-2.40266,5.80783-2.40266h17.29381c1.34508,0,2.43549,1.09041,2.43549,2.43549h0c0,1.34509-1.09041,2.4355-2.43549,2.4355h-17.29381c-.9403,0-1.69049.3111-2.35772.98178Z" fill="#fff"/>
        <path d="M219.23705,220.74141c-.10573-.10573-.11374-.27211-.02121-.38957.76989-.97737,1.40922-2.05939,1.90669-3.23198.71909-1.69741,1.08551-3.50889,1.08551-5.41718,0-3.84768-1.37589-7.17334-4.08619-9.88364-2.71034-2.71376-6.03596-4.08623-9.88368-4.08623-3.84417,0-7.16988,1.37247-9.88364,4.08623-2.7103,2.7103-4.08619,6.03596-4.08619,9.88364,0,3.84422,1.37589,7.16992,4.08619,9.88018,2.71376,2.7138,6.03947,4.08623,9.88364,4.08623,2.49078,0,4.80275-.61114,6.89177-1.8208.11549-.06688.26073-.04965.35519.04463l1.69287,1.68981c.0554.0553.13047.08636.20875.08636h6.06462c.26325,0,.39508-.31828.20894-.50442l-4.42326-4.42326ZM208.73511,217.13991l2.65457,2.65746c.15507.15524.0914.41537-.11505.48969-.95073.34223-1.9546.51109-3.03646.51109-1.65589,0-3.14931-.39757-4.56326-1.21688-1.41391-.81585-2.49943-1.90137-3.31874-3.31874-.81585-1.41396-1.21342-2.90391-1.21342-4.55985,0-1.65935.39757-3.14935,1.21688-4.56672.81585-1.41391,1.90137-2.49943,3.31528-3.31528,1.41396-.81936,2.90737-1.21688,4.56326-1.21688s3.14939.39752,4.56331,1.21688c1.41391.81585,2.49943,1.90137,3.31874,3.31528.81585,1.41737,1.21342,2.91084,1.21342,4.56672,0,1.22726-.23505,2.40612-.70525,3.49505-.23974.56041-.53016,1.08699-.86525,1.58182-.10312.15228-.32233.16908-.45237.03904l-3.15895-3.15895c-.11625-.11625-.30504-.11526-.42006.00221l-2.99872,3.06251c-.11328.11569-.11236.301.00207.41555Z" fill="#fff"/>
        <path d="M332.06477,197.7328c1.34602,0,2.43718,1.09116,2.43718,2.43718v11.53269c0,3.84422-1.37589,7.16992-4.08965,9.88018-2.71034,2.7138-6.03596,4.08623-9.88022,4.08623-3.84763,0-7.17334-1.37243-9.88364-4.08623-2.71376-2.71026-4.08619-6.03596-4.08619-9.88018v-11.53269c0-1.34602,1.09116-2.43718,2.43718-2.43718h0c1.34602,0,2.43718,1.09116,2.43718,2.43718v11.53269c0,1.65593.39415,3.14589,1.21342,4.55985.8159,1.41737,1.90137,2.50289,3.31878,3.31874,1.41391.81931,2.90387,1.21688,4.56326,1.21688,1.65593,0,3.14593-.39757,4.56326-1.21688,1.41396-.81585,2.49947-1.90137,3.31532-3.31874.81931-1.41396,1.21688-2.90737,1.21688-4.55985v-11.53269c0-1.34602,1.09116-2.43718,2.43718-2.43718h.00005Z" fill="#fff"/>
        <path d="M449.61738,225.66909h-5.0747c-.10693,0-.20552-.05777-.25778-.15106l-10.39552-18.55524c-.11276-.20127-.40238-.20145-.51539-.00032l-10.42594,18.55587c-.05232.09311-.1508.15074-.25761.15074h-5.07778c-.226,0-.36834-.2434-.25752-.44037l16.02244-28.47916c.11304-.20092.40238-.20077.5152.00028l15.98227,28.47916c.11054.19697-.03182.44009-.25768.44009Z" fill="#fff"/>
        <path d="M559.62035,213.45537c.69487,1.22726,1.04749,2.57205,1.04749,4.00327v5.77496c0,1.34508-1.09041,2.43549-2.43549,2.43549h-.00347c-1.34508,0-2.43549-1.09041-2.43549-2.43549v-5.77496c0-.93684-.3111-1.68011-.97486-2.33696-.6603-.64992-1.43468-.96799-2.3646-.96799h-12.41936c-1.34508,0-2.43549,1.09041-2.43549,2.43549v6.64441c0,1.34508-1.09041,2.43549-2.43549,2.43549h0c-1.34508,0-2.43549-1.09041-2.43549-2.43549v-11.54992c0-1.34508,1.09041-2.43549,2.43549-2.43549h17.29035c.92992,0,1.70429-.31802,2.3646-.96799.66377-.6568.97486-1.40007.97486-2.33696,0-.9403-.3111-1.69045-.98178-2.35768-.66723-.67069-1.41737-.98178-2.35768-.98178h-17.29035c-1.34508,0-2.43549-1.09041-2.43549-2.43549h0c0-1.34509,1.09041-2.4355,2.43549-2.4355h17.29035c2.26091,0,4.2141.80552,5.80779,2.40266,1.59715,1.59369,2.40612,3.54692,2.40612,5.80779,0,1.43126-.35262,2.77947-1.04749,3.99981-.07671.13548-.15653.26814-.23942.39794-.53387.83606-.5329,1.88602.00204,2.72141.08216.1283.1613.25932.23738.39297Z" fill="#fff"/>
        <g>
          <path d="M663.49194,211.70267c0,.80547-.2973,1.53148-.8608,2.09498-.5635.56004-1.28951.8608-2.09494.8608-.80898,0-1.53153-.30076-2.09498-.86426-.5635-.56004-.8608-1.28605-.8608-2.09152,0-.80893.2973-1.5349.8608-2.0984.56346-.5635,1.28947-.8608,2.09498-.8608.80543,0,1.53144.2973,2.09494.8608.5635.56692.8608,1.28947.8608,2.0984Z" fill="#fff"/>
          <path d="M649.57047,207.13595c-.81585,1.41737-1.21342,2.90737-1.21342,4.56672,0,1.65593.39757,3.14589,1.21342,4.55985.81931,1.41737,1.90483,2.50289,3.31874,3.31874,1.41396.81931,2.90737,1.21688,4.56326,1.21688h11.53445c1.34507,0,2.43547,1.0904,2.43547,2.43547h0c0,1.34508-1.0904,2.43547-2.43547,2.43547h-11.53445c-3.84763,0-7.17334-1.37243-9.8836-4.08623-2.71034-2.71026-4.08623-6.03596-4.08623-9.88018,0-3.84768,1.37589-7.17334,4.08623-9.88364,2.71026-2.71376,6.03596-4.08623,9.8836-4.08623h11.53445c1.34507,0,2.43547,1.0904,2.43547,2.43547v.00005c0,1.34507-1.0904,2.43547-2.43547,2.43547h-11.53445c-1.65589,0-3.14931.39752-4.56326,1.21688-1.41391.81585-2.49943,1.90137-3.31874,3.31528Z" fill="#fff"/>
        </g>
      </g>
    </g>
  </g>
</svg>